<?xml version="1.0" encoding="utf-8"?>
<!-- Generator: Adobe Illustrator 27.9.0, SVG Export Plug-In . SVG Version: 6.00 Build 0)  -->
<svg version="1.1" xmlns="http://www.w3.org/2000/svg" xmlns:xlink="http://www.w3.org/1999/xlink" x="0px" y="0px"
	 viewBox="0 0 5499.8 565.7" style="enable-background:new 0 0 5499.8 565.7;" xml:space="preserve">
<style type="text/css">
	.st0{fill:#267048;}
	.st1{fill:#FBE605;}
	.st2{fill:#FBE604;}
	.st3{fill:none;stroke:#303030;stroke-width:2;stroke-miterlimit:10;}
	.st4{fill:#565656;}
	.st5{display:none;fill:none;stroke:#606060;stroke-width:5;stroke-linecap:round;stroke-miterlimit:10;}
</style>
<g id="Main_x5F_Text">
	<g id="LOGO">
		<path class="st0" d="M202.7,400.9c-0.2-1.2-1.1-1.2-1.7-1.5c-1.8-0.9-3.7-1.6-5.5-2.5c-4.8-2.4-8.4-6.1-10.8-10.9
			c-3-6-4.5-12.5-6-19.3c1.4,0.1,2.5,0.1,3.7,0.3c6.1,1.1,11.1,4.1,15.1,8.8c4.2,5,7,10.8,9.3,16.9c1.1,2.8,2,5.6,2.8,8.4
			c0.4,1.2,0.9,1.8,2.3,1.9c4.9,0.4,9.8,0.8,14.6,1.3c1.5,0.1,3,0.2,4.4,0.5c1.4,0.3,2.9,0.7,4.4,1.2c2.8-1.3,6-1.5,9.1-1.8
			c4.7-0.4,9.3-0.9,14-1.2c1.3-0.1,1.9-0.6,2.3-1.9c1.9-6.4,4.2-12.7,7.5-18.5c3.1-5.5,7-10.3,12.8-13.3c3.3-1.7,7.1-2.6,10.4-2.4
			c0,0.2,0.1,0.5,0.1,0.8c-1.2,6.2-2.8,12.3-5.5,18c-2.7,5.5-6.8,9.4-12.4,12c-1.6,0.7-3.1,1.4-4.7,2.1c-0.4,0.2-0.7,0.4-1.1,0.7
			c0.6,0.9,1.3,0.4,1.9,0.3c7.3-1.5,14.4-3.5,21.4-5.9c1.6-0.5,3.2-1.2,4.9-1.8c0.3-2.7,0.5-5.4,0.8-8c0.6-5.5,1.3-11.1,3.2-16.4
			c2.8-8,8-13.4,16.1-15.9c0.5-0.2,1-0.2,1.4-0.3c0.2,0.2,0.3,0.3,0.3,0.4c0.2,6.6,0,13.2-1.9,19.6c-1.6,5.5-4.9,9.7-9.4,13.2
			c-1.2,1-2.5,1.9-3.6,2.9c-0.4,0.3-0.7,0.9-1.1,1.5c2.9-0.1,21.7-9.4,26.1-12.8c-0.2-3.3-0.4-6.7-0.6-10.1
			c-0.3-4.9-0.2-9.8,0.6-14.7c1.4-7.6,5.4-13.2,12.1-16.9c0.6-0.3,1.3-0.6,2.2-1c0.2,1,0.5,1.9,0.6,2.7c1.1,6.2,1.7,12.4,0.7,18.6
			c-0.9,5.5-3.1,10.4-7.2,14.2c-0.5,0.5-0.9,1.1-1.1,2c0.4-0.1,0.8-0.1,1.1-0.3c7.1-4.6,13.9-9.6,20.1-15.4c1.2-1.2,2.5-2.2,3.9-3.5
			c-5.6-6.9-7.3-14.8-6.6-23.3c0.6-7.4,3.2-14.1,7.6-20.4c1.1,0.6,1.8,1.5,2.5,2.5c2.7,3.8,3.8,8.2,4.1,12.8
			c0.5,6.5-0.4,12.9-2.1,19.2c-0.3,1.1-0.4,2.2-0.3,3.5c6.5-5.3,11.9-11.5,16.9-18.4c-7.7-7.1-10.3-16.2-9.9-26.2
			c0.3-7.5,2.6-13.6,6.3-18.1c1.8,1.3,3,3.1,4.1,4.9c2.5,4.2,3.7,8.7,4,13.5c0.4,5.9-0.2,11.7-1,17.5c-0.1,0.7-0.4,1.3-0.5,1.9
			c-0.1,0.5,0.1,1.1,0.3,1.7c6.4-7.7,11.7-15.9,16.2-24.9c-9.3-6.2-14.6-14.7-15.8-25.7c-0.6-5.7,0.3-12.7,3.1-17.1
			c3.7,2.2,6.6,5.2,8.8,8.9c2.9,5,4.1,10.5,4.5,16.2c0.3,4.1,0.3,8.2,0.5,12.2c0,0.8,0.1,1.5,0.2,2.5c2.8-2.6,12.3-25.7,12.6-30.3
			c-8.4-2.1-14.7-7.1-19.1-14.4c-4.1-6.8-5.8-14.2-5.7-22.2c2.4,0.4,4.4,1.3,6.3,2.4c5.6,3.3,9.5,8.2,12.7,13.7
			c2.7,4.6,4.7,9.6,6.1,14.8c0.2,0.8,0.1,1.9,1.7,1.8c2.5-9.3,4-18.8,5.1-28.8c-10.4-1.3-19.1-5.7-25.6-14.1
			c-4-5.2-6.9-12.4-7.7-18.8c1.9-0.5,3.7,0.1,5.4,0.6c6.3,2,11.2,6,15.6,10.8c4.3,4.7,7.8,9.9,10.6,15.6c0.7,1.5,0.7,1.5,2.2,2.2
			c0.8-9.6,0.2-19.1-0.6-28.9c-10.5,0.4-19.6-2.7-27.2-9.8c-4.8-4.4-8.1-9.7-10.5-15.9c5.4-1.1,10.3,0.1,15,2.5
			c4.7,2.5,8.7,5.9,12.6,9.5c2.5,2.3,4.9,4.8,7.3,7.2c0.5,0.5,1.1,1,2,1.9c0.1-2.6-0.5-4.6-0.8-6.6c-0.3-2.1-0.8-4.2-1.2-6.3
			c-0.4-2-0.9-4.1-1.4-6.1c-0.5-2.1-1.1-4.1-1.7-6.4c-11.7,1.4-22.1-1.1-31.1-8.8c-4-3.4-8.3-9.7-9-13.6c3.1-0.7,6.2-0.5,9.2,0
			c5.5,1,10.5,3.3,15,6.6c3.9,2.8,7.6,5.9,11.4,8.9c0.9,0.7,1.8,1.5,3.1,2.6c-0.2-1-0.2-1.5-0.4-2c-2.4-7.7-5.4-15.1-8.6-22.4
			c-0.7-1.6-0.8-1.6-2.8-1.1c-14.7,3.6-30.9-3.3-39.1-16.3c-0.1-0.2-0.2-0.4-0.4-0.8c0.5-0.2,1-0.5,1.5-0.7
			c4.5-1.5,9.1-1.4,13.6-0.2c5.5,1.4,10.5,4.2,15.4,6.9c1.8,1,3.6,2.1,5.4,3.1c0.4,0.2,0.9,0.4,1.7,0.8c-0.3-0.8-0.4-1.3-0.6-1.7
			c-3.6-7.2-7.8-14-12.4-20.6c-1-1.4-2.1-1.4-3.5-1c-4.8,1.3-9.7,2.2-14.7,2.4c-6.7,0.3-13.2-0.8-19-4.3c-2.5-1.5-4.7-3.4-6.7-5.7
			c0.3-0.3,0.6-0.5,0.9-0.6c5.1-2.2,10.3-3.7,15.9-4.2c6.8-0.5,13.1,1,18.7,5.1c0.8,0.6,1.5,1.6,2.9,1c-0.2-0.3-0.3-0.7-0.5-0.9
			c-5.3-6.7-10.9-13.2-16.7-19.4c-1.2-1.3-2.2-1.7-4-0.9c-5.8,2.4-11.8,3.4-18.1,2.9c-6.5-0.5-12-3-16.6-7.7c-0.3-0.4-0.6-0.8-1-1.3
			c10.3-5.4,20.8-6.7,32-3.5c-0.1-1.6-1.6-1.4-2.3-2.3c-0.5-0.7-1.4-1.2-2.2-1.7c-1-0.5-2.1-1.1-3.2-1.3c-4-0.9-8-2.1-11.5-4.4
			c-3-2-5.4-4.5-6.8-7.8c-0.6-1.4-1.6-2.6-2.2-4c-0.7-1.4-1.2-2.9-2-4.7c1.2,0,2-0.2,2.7,0c4.1,1,7.9,2.7,11.6,4.7
			c3.8,2.1,6.2,5.5,8.7,8.9c0.7,1,0.9,2.4,1.4,3.5c0.7,1.7,1.2,3.5,3.1,4.2c0.4,0.1,0.6,0.5,1.3,0.6c-0.2-0.4-0.4-0.9-0.7-1.3
			c-2.7-3.9-4.9-8.2-5.7-12.9c-0.7-3.9-0.5-7.8,0.7-11.9c3.5,2.4,6.7,4.9,9.7,7.7c7.9,7.4,10.7,16.7,10.1,27.2
			c-0.1,1.2,0.1,2.1,1.1,2.9c5.7,5.4,10.8,11.4,15.5,17.8c0.4,0.5,0.9,1,1.4,1.5c0.2-0.1,0.3-0.2,0.5-0.3c-0.2-0.8-0.5-1.6-0.7-2.4
			c-1.5-5.1-2.6-10.4-2.4-15.8c0.2-5.2,1.7-10.1,4.9-14.3c0.2-0.2,0.3-0.5,0.7-1c1.5,1.8,2.8,3.2,4,4.8c4.3,5.6,7.1,11.8,8.6,18.6
			c1.1,4.6,0.1,9.2-1.4,13.6c-1.1,3.4-2.4,6.7-3.7,10c-0.4,1.1-0.4,1.9,0.3,2.9c4.6,6.9,8.6,14,12.3,21.4c0.2,0.3,0.4,0.6,0.9,0.9
			c0-0.3,0.1-0.6,0-0.9c-1.5-5.2-2-10.6-2.5-16c-0.4-4.1-0.4-8,0.9-11.9c1.9-5.9,5.5-10.8,9.7-15.6c0.8,1.4,1.5,2.6,2.1,3.9
			c4,8,6,16.4,5.9,25.3c0,4.3-1,8.4-2.8,12.3c-2.2,4.5-4.6,9-7,13.4c-0.5,0.9-1.1,1.8-1.6,2.7c3.5,7.3,5.4,15,7.4,22.7
			c0.2,0,0.3,0,0.5,0c0.1-0.4,0.2-0.9,0.2-1.3c0-3.9,0.1-7.7,0-11.6c-0.1-2.5,0.5-4.8,1.4-7.1c2.6-6.3,7-11.1,13.2-14.7
			c0.6,2.2,1.3,4.3,1.7,6.3c1.5,6.5,1.9,13.1,0.9,19.7c-0.6,3.8-2.3,7.1-4.6,10c-3,3.8-6.2,7.4-9.3,11.1c-0.7,0.9-1,1.6-0.8,2.8
			c1.2,6.7,1.8,13.4,2.1,20.1c0,0.7,0.1,1.4,0.2,2.1c0.2,0,0.4,0,0.5,0c0.2-0.8,0.3-1.5,0.5-2.3c0.8-4.6,1.6-9.2,3.6-13.5
			c1.8-4,4.8-7,8.3-9.3c2.2-1.5,4.6-2.6,7.2-4.1c0.5,5.9,0.7,11.5-0.2,17.1c-0.9,5.6-3.3,10.5-7.3,14.5c-2.5,2.5-5.2,4.8-7.9,7.2
			c-1.2,1-2.5,1.9-3.7,2.9c-0.5,0.4-0.9,1-1,1.6c-0.3,8.5-1.5,16.8-3.2,25.2c-0.1,0.3,0,0.6,0.3,1c0.2-0.3,0.6-0.6,0.7-1
			c1.2-3,2.2-6.1,3.6-9.1c2.3-5.1,5.3-9.6,9.5-13.3c4.4-3.8,9.5-6,15.2-6.8c0.4-0.1,0.9,0,1.3,0.1c-1.7,6.5-2.6,13.2-5.9,19.1
			c-3.1,5.6-7.6,9.9-13.2,12.9c-4.3,2.3-8.8,4.1-13.6,6.3c-1.9,6.1-4,12.7-6.1,19.3c0.1,0,0.2,0.1,0.3,0.1c1.6-2,3.1-4.1,4.8-6
			c3.8-4.5,8-8.6,13.5-11c4.5-1.9,9.2-2.7,14.3-3c-0.2,0.9-0.3,1.5-0.4,2.1c-2.2,7.7-6.3,14.4-11.6,20.3c-3.4,3.8-7.7,6.4-12.3,8.3
			c-4.6,1.9-9.3,3.5-14,5.1c-1.3,0.4-2.1,1-2.8,2.2c-2.8,4.9-5.7,9.7-8.5,14.6c-0.3,0.5-0.5,1-0.9,1.7c1.2-0.1,1.7-0.9,2.2-1.4
			c3.7-3.2,7.3-6.5,10.9-9.8c3.7-3.3,8.1-5.1,12.9-6.1c4.2-0.8,8.5-1,12.9-1c2,0,2.5,0.9,1.4,2.5c-5.7,8.2-11.9,16-20.8,21
			c-4.9,2.8-10.2,4.3-15.8,5c-3.2,0.4-6.5,0.7-9.7,1c-1.4,0.1-2.4,0.6-3.2,1.9c-3.7,5.8-7.9,11.1-12.5,16.2
			c-0.6,0.7-1.2,1.3-1.6,2.3c0.4-0.2,0.9-0.3,1.2-0.6c5.4-3.6,10.6-7.3,16.1-10.8c2.5-1.6,5.3-3,8.2-4c6.3-2.4,12.7-1.6,19,0.1
			c1.7,0.5,2,1.4,0.9,3c-3,4.3-6.5,8.1-10.6,11.3c-11.3,8.8-24.3,11.5-38.3,10.7c-1.7-0.1-3.4-0.3-5.1-0.4c-0.5,0-1.2,0.2-1.6,0.5
			c-4.9,4.2-9.8,8.5-14.6,12.7c-0.1,0.1-0.2,0.4-0.5,1c1-0.4,1.7-0.6,2.3-0.9c5.4-2.4,10.9-4.3,16.7-5.3c8.6-1.4,16.8-0.3,24.6,3.8
			c1.7,0.9,1.9,1.8,0.5,2.8c-7.2,5.1-14.5,10.2-23.1,12.6c-5.5,1.5-11.1,1.7-16.8,0.9c-5.5-0.8-10.9-2.2-16.2-4
			c-1.1-0.4-2-0.6-3.1,0.1c-4.3,2.8-8.6,5.6-12.9,8.4c-0.3,0.2-0.5,0.4-0.7,1c0.6-0.1,1.2-0.2,1.8-0.3c8.1-1.7,16.2-1.9,24.2,0.7
			c4,1.3,7.7,3.2,10.9,5.8c0.3,0.3,0.7,0.6,1,0.9c0.2,0.1,0.3,0.4,0.4,0.6c-0.2,0.2-0.3,0.5-0.5,0.6c-7.1,5.2-14.9,7.7-23.8,7
			c-9.2-0.7-17.6-3.9-26-7.5c-0.7-0.3-1.4-0.6-2-0.9c-0.8-0.4-1.5-0.3-2.3,0.1c-5.2,2.9-10.7,5.1-16.3,7c-0.2,0.1-0.5,0.2-0.7,0.7
			c0.8,0,1.7,0,2.5,0c3.4,0.2,6.8,0.3,10.2,0.7c6.7,0.8,11.9,4.3,16.1,9.5c1.2,1.5,2.4,3,3.8,4.7c-2.5,0.7-4.7,1.5-6.9,2
			c-6.4,1.6-12.9,2-19.4,0.2c-5.1-1.5-9.4-4.4-13.3-7.9c-1.8-1.6-3.6-3.4-5.3-5.1c-0.7-0.7-1.4-0.9-2.4-0.6
			c-7.3,2-14.8,3.3-22.3,4.4c-0.3,0-0.5,0.1-1.2,0.3c0.7,0.6,1.2,1,1.7,1.3c6.9,4.2,13.5,8.9,19.9,13.8c0.5,0.4,1,0.8,1.5,1.3
			c2,2.2,2.1,4.6,0.3,6.6c-1.7,1.9-4.7,2.3-6.9,0.7c-3.1-2.2-6-4.6-9.1-6.8c-4.2-2.9-8.3-6-12.7-8.6c-8.1-4.7-16.5-4.9-24.8-0.4
			c-2.7,1.4-5.3,3-7.8,4.8c-5,3.5-9.8,7.2-14.7,10.9c-2.4,1.7-5.4,1.4-7.2-0.7c-1.3-1.5-1.5-3.5-0.4-5.2c0.6-1,1.5-1.9,2.4-2.6
			c6.5-5,13.1-9.7,20.1-14c0.5-0.3,0.9-0.7,1.7-1.2c-3.3-0.5-6.2-0.9-9-1.5c-4.8-1-9.6-2-14.3-3.1c-1.2-0.3-1.9,0-2.8,0.8
			c-1.6,1.6-3.3,3.2-5,4.8c-9.2,8.8-20.1,10.9-32.2,8c-2.4-0.6-4.8-1.4-7.3-2.1c5.5-8.3,12.3-14.2,22.6-14.7c2.7-0.1,5.3-0.2,8-0.3
			c0.5,0,1.1-0.1,1.7-0.4c-1.9-0.7-3.8-1.4-5.7-2.2c-3.7-1.6-7.5-3.3-11.1-5.1c-1.1-0.5-2-0.2-2.9,0.2c-5.1,2-10.2,4.1-15.4,5.8
			c-6.3,2.1-12.8,3-19.5,2.1c-6.3-0.8-11.8-3.4-17-7.4c1.1-0.9,2-1.7,2.9-2.5c6.9-5,14.7-6.9,23.1-6.8c3.7,0,7.4,0.5,11,1.3
			c0.5,0.1,1.1,0.1,1.8-0.1c-0.9-0.6-1.8-1.2-2.7-1.8c-3.5-2.3-7.1-4.5-10.6-7c-1.2-0.8-2.2-0.9-3.5-0.5c-5.8,1.9-11.7,3.4-17.7,4.2
			c-8.6,1-16.8-0.5-24.3-4.7c-4.5-2.5-8.7-5.4-13-8.1c-0.2-0.1-0.4-0.3-0.5-0.4c-2-1.6-2-2.2,0.3-3.4c8.4-4.4,17.2-5.2,26.4-3.3
			c4.8,1,9.4,2.6,13.9,4.6c0.8,0.3,1.6,0.6,2.6,0.6c-0.3-0.3-0.5-0.6-0.8-0.9c-4.5-3.9-8.9-7.8-13.4-11.8c-0.8-0.8-1.6-1-2.8-0.9
			c-8.6,1-17,0.7-25.4-1.6c-11.6-3.2-20.6-9.9-27.7-19.5c-0.2-0.2-0.4-0.5-0.5-0.7c-0.9-1.5-0.6-2.4,1.1-2.9
			c8.1-2.3,16-2.4,23.5,1.9c3.6,2,7.1,4.3,10.6,6.6c2.9,1.9,5.8,3.9,8.6,5.9c0.4,0.3,0.9,0.5,1.6,0.5c-0.3-0.4-0.5-0.9-0.9-1.3
			c-4.9-5.4-9.4-11.1-13.3-17.2c-0.7-1.1-1.6-1.3-2.8-1.4c-4.1-0.4-8.1-0.8-12.2-1.3c-8.9-1.3-16.4-5.4-22.8-11.6
			c-4.2-4.1-7.8-8.7-11.2-13.5c-0.2-0.3-0.4-0.6-0.6-0.9c-0.5-1.2-0.2-1.9,1.1-1.9c1.9-0.1,3.7-0.1,5.6,0.1c3.2,0.3,6.5,0.7,9.7,1.3
			c3.7,0.7,7.1,2.2,9.9,4.8c4.2,3.7,8.3,7.4,12.5,11.1c0.4,0.4,0.9,0.7,1.6,0.9c-0.2-0.4-0.3-0.9-0.5-1.3c-3-5.2-6.1-10.3-9.1-15.6
			c-0.5-0.9-1.1-1.2-2-1.5c-4.5-1.5-9-3.1-13.4-4.7c-9.9-3.7-16.6-11-21.3-20.2c-1.6-3.1-2.6-6.4-3.9-9.7c-0.1-0.3-0.1-0.7-0.2-1.3
			c3.1-0.1,6,0.5,8.9,1.1c6.9,1.5,12.5,5.4,17.1,10.6c1.9,2.2,3.7,4.5,5.5,6.7c0.3,0.3,0.5,0.7,1.1,0.9c0-0.4,0-0.9-0.2-1.3
			c-1.7-5.5-3.5-11-5.1-16.6c-0.3-1.1-1-1.5-1.9-1.9c-4.5-1.5-8.7-3.3-12.8-5.7c-8.5-4.9-13.8-12.2-16.1-21.7
			c-0.8-3.2-1.5-6.5-2.3-10c0.9,0.1,1.8,0.1,2.6,0.2c7.3,1.3,13.3,4.9,17.9,10.8c4.1,5.2,6.8,11.1,8.8,17.4c0.4,1.1,0.4,1.1,1.4,2.1
			c0-0.6,0.1-1,0-1.3c-1.7-8.1-2.9-16.2-3.1-24.5c0-1.1-0.4-1.7-1.3-2.4c-4.1-3-8.1-6.2-11.6-10c-4.5-4.8-7-10.5-7.4-17
			c-0.3-4.4,0-8.8,0-13.1c0-0.3,0.1-0.5,0.3-1.1c1.3,0.6,2.3,1.2,3.4,1.8c8.8,4.2,13.4,11.4,14.9,20.8c0.3,1.8,0.6,3.5,0.9,5.3
			c0.1,0.3,0.2,0.6,0.7,0.8c0.1-0.4,0.2-0.8,0.2-1.2c0.2-7,0.9-13.9,2.1-20.8c0.2-1.1-0.1-1.8-0.8-2.6c-2.1-2.4-4.2-4.8-6.3-7.2
			c-1.3-1.6-2.6-3.3-3.9-4.9c-3.4-4.4-4.2-9.6-4.4-14.9c-0.3-6.7,1-13.1,3-19.5c0-0.1,0.2-0.2,0.4-0.4c2.5,1.2,4.7,3,6.7,5
			c3.3,3.3,5.7,7.2,7.1,11.7c0.3,1,0.5,2.2,0.5,3.3c0.1,4.2,0,8.5,0,12.7c0,0.7,0,1.4,0,2.1c0.2,0,0.4,0.1,0.6,0.1
			c0.2-0.6,0.5-1.3,0.7-1.9c1.7-6.9,3.5-13.7,6.5-20.1c0.4-0.9,0.2-1.5-0.2-2.3c-1.8-3-3.6-6-5.2-9.1c-2.2-4.2-4.1-8.6-5-13.3
			c-1-5.2-0.5-10.4,0.4-15.5c1.2-6.5,3.6-12.5,7-18.4c0.4,0.4,0.8,0.7,1.1,1c3.2,3.7,6,7.7,7.9,12.3c1.4,3.4,2.1,7,1.9,10.7
			c-0.5,6.3-0.9,12.6-2.6,18.7c-0.1,0.5-0.2,1,0,1.6c0.3-0.4,0.5-0.8,0.8-1.2c3.6-7.2,7.6-14.3,12.1-21c0.7-1,0.8-1.9,0.4-3.1
			c-1.4-3.5-2.6-6.9-3.8-10.4c-2.1-6-2.1-12,0.1-18.1c2.3-6.3,5.5-12,9.9-17c0.3-0.4,0.6-0.8,1.1-1.4c2.4,2.6,3.8,5.5,4.7,8.5
			c1.6,5.5,1.3,11,0.2,16.5c-0.5,2.2-1.1,4.5-1.7,6.7c-0.1,0.6-0.3,1.1,0,1.9c0.4-0.4,0.8-0.7,1.1-1.1c4.9-6.6,10.2-12.8,16.1-18.4
			c0.8-0.7,0.8-1.5,0.8-2.4c-0.1-3.7,0-7.4,0.7-11.1c1.5-7.2,5.4-13,10.8-17.7c2.6-2.2,5.3-4.2,8.2-6.4c3.4,11.1-1.1,19.9-7.3,28.7
			c0.9-0.3,1.4-0.4,1.8-0.7c1.3-0.8,2.6-1.6,3.7-2.6c0.9-0.7,1.7-1.6,2.3-2.5c2.1-3.4,4.4-6.6,7.6-9c2.9-2.2,6.2-3.6,9.8-4
			c1.6-0.2,3.1-0.6,4.7-0.8c1.7-0.2,3.4-0.6,5-0.2c0.7,1.2,0,1.9-0.5,2.6c-2.2,3.3-5,6.1-8,8.8c-3.4,2.9-7.5,4-11.5,5.2
			c-1.3,0.4-2.7,0.2-4.1,0.2c-2.7,0.1-3.7,0.4-6,2.2c-1,0.8-2,1.5-2.9,2.2c-0.4,0.3-0.6,0.6-0.9,1.1c10.9-5,21-2,31.4,2.7
			c-1.3,1.3-2.2,2.4-3.4,3.3c-4.5,3.7-9.7,5.6-15.6,5.8c-6,0.3-11.8-0.8-17.4-3.1c-1.3-0.6-2.2-0.5-3.3,0.7
			c-5.4,6.3-10.9,12.5-16.4,18.8c-0.4,0.4-0.7,0.9-1.1,1.4c0.4,0.6,0.9,0.8,1.5,0.4c0.3-0.2,0.6-0.4,0.9-0.7
			c4.7-3.6,10-5.4,15.9-5.5c7-0.1,13.4,1.9,20,4.6c-2.1,2.6-4.4,4.6-7.1,6.1c-6,3.5-12.5,4.4-19.3,4.1c-4.6-0.2-9.1-1-13.6-2.2
			c-3-0.8-3.1-0.3-4.4,1.6c-4.4,6.2-8.3,12.6-11.7,19.4c-0.3,0.5-0.5,1.1-0.7,1.6c0,0.1,0.1,0.3,0.1,0.6c0.7-0.3,1.3-0.7,1.9-1
			c5.4-3,10.6-6.2,16.4-8.5c5.4-2.1,10.9-3,16.6-1.5c0.8,0.2,1.7,0.6,2.8,0.9c-1.1,1.6-2,3.1-3.1,4.3c-7.8,9.3-17.7,14-29.8,13.8
			c-2.4,0-4.8-0.6-7.3-1.1c-1.2-0.2-1.8,0.1-2.3,1.2c-3.4,7.7-6.5,15.5-9,23.5c-0.1,0.2-0.1,0.4-0.1,0.9c1.1-0.4,1.7-1.2,2.5-1.8
			c3.3-2.7,6.5-5.5,9.8-8c5-3.8,10.5-6.7,16.7-8c3.2-0.6,6.3-0.8,9.8-0.2c-0.4,1-0.7,1.9-1.1,2.8c-3.8,8-10,13.6-18.1,17
			c-5.6,2.4-11.5,3.4-17.6,2.9c-1-0.1-2.1-0.1-3.1-0.2c-0.1,0-0.1,0.1-0.4,0.2c-2.3,7.9-4.1,16.1-5.1,25c0.8-0.6,1.2-0.9,1.5-1.2
			c3.6-3.4,7-7,10.8-10.3c4.3-3.8,8.9-7.2,14.5-8.9c3.2-1,6.5-1.4,10.1-0.5c-2.9,7.9-7.6,14.4-14.5,19.2c-6.8,4.8-14.5,6.9-23,6.5
			c-1.3,9.7-1.2,19.2-0.9,28.8c1.4,0.2,1.7-0.7,2.1-1.5c1.7-3,3.3-6.2,5.2-9.1c3.5-5.4,7.8-10.1,13.1-13.8c3.1-2.2,6.5-3.9,10.3-4.7
			c1-0.2,2-0.2,3.1-0.3c-1.1,12.8-11,30.5-33,33.2c0.9,9.7,2.6,19.3,5,28.7c1.5,0.2,1.4-0.8,1.7-1.5c0.9-2.7,1.7-5.5,2.8-8.2
			c2.6-6.4,6.1-12.2,11.2-17c3-2.8,6.3-4.9,10.3-5.9c0.2-0.1,0.4,0,0.9-0.1c0.2,8.3-1.7,15.9-6.1,22.9c-4.4,7-10.5,11.8-18.6,13.7
			c0.2,4.5,9.8,27.9,12.6,30.3c0.1-1.3,0.2-2.3,0.2-3.4c0.1-5.5,0.1-11,1.1-16.4c1.3-6.9,3.9-13.1,9.4-17.7c1-0.8,2.1-1.5,3.4-2.5
			c3.5,8,3.9,15.9,1.6,23.9c-2.4,8.1-7.3,14.3-14.4,19.1c4.4,9,9.8,17.2,15.9,25c0.9-0.8,0.6-1.5,0.5-2.3c-1.7-9-2.6-17.9,0.2-26.9
			c1.2-4,3.3-7.6,6.6-10.6c5.2,6.9,6.8,14.7,6.3,23c-0.6,8.3-3.4,15.6-9.8,21.4c4.9,6.9,10.4,12.9,16.7,18.7
			c0.6-1.3,0.3-2.3,0.1-3.4c-0.8-4-1.7-8-2.2-12c-0.7-5.9-0.1-11.7,2.4-17.2c1.2-2.6,2.4-4.1,4.3-5.4c4.6,6.5,7.2,13.8,7.7,21.7
			c0.4,8-1.4,15.3-6.7,21.8c7.7,7.4,15.8,14,24.8,19.4c0.1-0.1,0.3-0.3,0.4-0.4c-0.3-0.4-0.4-1-0.8-1.3c-7.1-6.6-8.5-15-8-24.1
			c0.2-3.9,0.9-7.8,1.4-11.9c2.2,0.6,3.8,1.7,5.3,2.8c5.7,4.1,8.6,9.9,9.5,16.7c0.7,5.4,0.5,10.8,0.2,16.2c-0.1,1.5,0,3-0.3,4.4
			c-0.4,2,0.3,3.1,2.1,4c5.4,2.7,10.7,5.6,16,8.3c1.7,0.9,3.5,1.6,5.3,2.4c0.7,0.3,1.3,0.5,2.5,0.9c-0.4-0.8-0.5-1.3-0.8-1.6
			c-1.2-1-2.4-2.1-3.6-3c-7-5.1-10.4-12.3-11.2-20.7c-0.3-3.6-0.4-7.3-0.5-10.9c0-0.6,0-1.2,0-1.9c2.8,0.4,5.1,1.5,7.4,2.8
			c5.7,3.3,9,8.4,11,14.6c1.8,5.6,2.4,11.3,3,17.1c0.2,1.5,0.4,3,0.4,4.4c0,1.3,0.5,2,1.8,2.4c4.5,1.4,8.9,3,13.3,4.3
			c3.8,1.1,7.6,1.9,11.4,2.8C201.5,400.8,202,400.8,202.7,400.9z"/>
		<path class="st0" d="M50.2,426.2c0.4,0.2,0.7,0.5,1,0.5c5.3,0.5,10.6,1,15.9,1.5c6,0.5,12,0.9,18,1.5c7.1,0.7,14.2,1.6,21.2,2.5
			c5.7,0.8,11.4,1.7,17.2,2.6c7.9,1.2,15.5,3.2,23.1,5.5c7.7,2.4,15.3,5.2,22.4,9c0.1,0.1,0.3,0.1,0.4,0.2c2,1.9,4.1,1.7,6.6,0.8
			c7.2-2.6,14.8-3.5,22.5-3.9c5.7-0.3,11.4-0.7,17.1-1.1c2-0.1,4.1-0.5,6.1-0.5c1.4,0,2.8,0.4,4.1,0.4c7.2,0,14.4,0.1,21.6,0
			c5.9-0.1,11.7,0.5,17.5,1c8.4,0.6,16.8,1.8,24.9,4.4c0.8,0.3,1.7,0.5,2.5,0.9c1.3,0.7,2.3,0.5,3.5-0.4c3.7-2.8,8-4.5,12.3-6.2
			c4.4-1.7,8.9-3.3,13.4-4.6c5.8-1.6,11.6-3.3,17.5-4.3c10.2-1.8,20.5-3.4,30.8-4.7c8.1-1.1,16.2-1.6,24.4-2.4
			c5.9-0.5,11.8-0.9,17.7-1.4c1.7-0.1,3.5-0.5,5.4-0.8c-0.3-0.7-0.4-1.2-0.6-1.7c-1.7-3.6-3.3-7.1-5-10.6c-1-2-1-3.8-0.1-5.7
			c2.1-4.7,6.2-6.8,10.8-8.2c3.3-1,6.5-1.1,9.8-0.1c4.8,1.4,8.2,5,9.1,9.9c1.3,7,2.7,14,4.1,20.9c0.5,2.6,1.2,5.2,1.7,7.8
			c0.1,0.4-0.1,1-0.3,1.4c-1.9,4.6-5.4,7.7-9.5,10.3c-4.2,2.6-8.9,4.1-13.6,5.4c-6.9,1.9-13.9,2.8-21,3.5
			c-5.6,0.5-11.2,1.2-16.8,1.7c-4.4,0.4-8.9,0.7-13.3,1c-6.1,0.5-12.2,1.2-18.4,1.7c-8.5,0.7-16.9,2.1-25.3,3.7
			c-4,0.7-8,1.8-11.9,2.7c-0.3,0.1-0.5,0.2-1,0.5c0.2,1.3,0.4,2.5,0.7,3.8c0.2,1.2,0.6,2.2-0.3,3.4c-0.3,0.5-0.3,1.3-0.3,1.9
			c0,3.9,0,7.9,0,11.8c0,3.2-1.8,4.9-4.9,4.9c-1,0-2.1-0.1-3.1,0c-4.9,0.7-9.3-0.9-13.5-3c-4.7-2.4-9.2-5.1-13-8.8
			c-2.5-2.4-4.7-5-6-8.2c-0.5-1.2-1.2-1.5-2.4-1.5c-3.6,0-7.3-0.1-10.9,0c-2.6,0.1-5.3,0.6-7.9,0.5c-19.4-1-38.9-0.2-58.3-0.6
			c-1.8,0-2.8,0.4-3.6,2.1c-2,4.4-5.4,7.8-9.2,10.7c-4.7,3.4-9.7,6.4-15.2,8.1c-3.3,1-6.6,1.9-10,1.1c-3.2-0.8-5.2-2.9-5.1-6.2
			c0.2-5.9,0.1-11.9,0.1-17.8c0-2-0.1-2.2-1.9-2.6c-4.7-1.1-9.4-2.3-14.1-3.1c-6.9-1.2-13.8-2.2-20.7-3c-5.7-0.7-11.5-1.1-17.3-1.6
			c-9.4-0.8-18.8-1.6-28.1-2.5c-7-0.7-14-1.5-20.9-2.7c-7.8-1.4-15.3-3.7-21.8-8.3c-3.1-2.2-5.6-4.9-7.2-8.3
			c-0.4-0.9-0.4-1.7-0.2-2.6c1.3-6.2,2.7-12.5,4-18.7c0.6-3.1,1.2-6.3,1.8-9.4c1-5.3,4.3-8.5,9.6-9.8c5.2-1.3,9.8,0,14.3,2.3
			c2.4,1.2,4.2,3.3,5.4,5.7c1.1,2.1,1.1,4.1,0.1,6.2c-1.7,3.6-3.4,7.3-5.1,10.9C50.5,425.5,50.4,425.8,50.2,426.2z M312.5,492.8
			c-1-1.2-1.8-2.7-3-3.7c-8.3-7.7-18.2-12.2-29.3-13.9c-0.8-0.1-1.5,0-2.4,0c1,2.7,3.9,6.5,6.6,8.7c4.4,3.7,9.4,6.5,14.7,8.7
			c3.1,1.3,6.4,2,9.7,2C310.2,494.6,311.4,494.2,312.5,492.8z M189.9,474.9c-1,0.1-1.8,0.1-2.6,0.2c-10.9,1.9-20.6,6.5-28.7,14.2
			c-0.7,0.7-1.4,1.5-2,2.4c-0.8,1.1-0.6,1.8,0.6,2.2c1.2,0.3,2.5,0.6,3.7,0.5c3.5-0.3,6.8-1.2,10-2.8c3.9-2,7.7-4.1,11.1-6.9
			c3-2.4,5.4-5.2,7.4-8.5C189.6,475.9,189.7,475.5,189.9,474.9z M433,418.6c2.2-2.1,3.8-4.4,4.5-7.2c0.3-1,0.5-2.1,0.2-3
			c-0.7-2.8-2.6-4.8-5.5-5.6c-4.7-1.3-9.1-0.6-13.3,1.6c-1.9,1-3.5,2.6-4.5,4.5c-1.4,2.8-0.4,5.3,2.6,6.4c1.7,0.6,3.5,0.6,5.3,0.2
			c2.2-0.5,4.3-1.1,6.4-1.6c1.6-0.4,1.7-0.4,2.4,1C431.8,416,432.3,417.2,433,418.6z M34.2,418.7c0.8-1.7,1.4-2.9,1.9-4.2
			c0.4-1,0.9-1.2,1.9-0.9c1.3,0.4,2.7,0.9,4,1.2c2.7,0.5,5.3,1.3,8.1,0.4c2.4-0.8,3.6-2.7,3-5.1c-0.3-1.1-0.9-2.2-1.6-3.1
			c-3.9-4.6-12.6-6.2-18-3.6c-3.1,1.5-5.2,5.3-3.5,9.1C31,414.7,32.3,416.6,34.2,418.7z M227.2,469.4c-1.7-3-3.2-5.5-5.1-7.8
			c0.2-0.2,0.4-0.4,0.6-0.5c2.5-1.5,3.3-3.4,2.7-6.2c-0.5-2.4-2.1-3.7-4.9-4c-0.4-0.1-0.9-0.1-1.3-0.1c-2.4,0-4.9,0-7.3,0
			c-0.5,0-1,0.1-1.6,0.2c0.1,6.1-0.1,12.2,0.1,18.2c1.6,0,2.9,0,4.4,0c0-2.5,0-4.8,0-7.1c1.7-0.3,2.6,0.4,3.4,1.5
			c1.3,1.9,2.6,3.8,3.8,5.6C223.5,469.4,225,469.4,227.2,469.4z M113,450.1c1.7-0.1,2.6,0.7,3.2,1.9c0.9,1.6,1.7,3.3,2.6,4.9
			c0.3,0.5,0.8,1.1,1.4,1.3c1.3,0.3,2.6,0.3,4.4,0.4c-1.4-3.2-2.6-5.9-4.3-8.4c0.4-0.1,0.6-0.2,0.9-0.4c2.3-1,3.5-3,3.3-5.5
			c-0.2-2.5-1.6-4.1-4.3-4.7c-1.6-0.4-3.2-0.5-4.8-0.7c-1.8-0.2-3.6-0.3-5.6-0.5c-0.7,6.2-1.4,12.1-2.1,18.4
			c1.5,0.2,2.9,0.3,4.4,0.5C112.3,454.7,112.7,452.5,113,450.1z M383,445.3c-0.1,0-0.3,0.1-0.4,0.1c-0.3-0.4-0.7-0.8-1-1.2
			c-1.7-2.2-3.5-4.4-5.2-6.6c-0.3-0.4-0.9-1-1.3-1c-1.2,0.1-2.5-0.2-3.7,0.7c0.7,5.9,1.4,11.9,2.1,18.1c1.5-0.2,2.8-0.4,4.1-0.5
			c-0.3-3.3-0.7-6.4-1-9.4c0.9,0.5,1.4,1.2,1.9,1.8c1.5,1.9,3,3.9,4.6,5.8c0.4,0.5,1,1.1,1.5,1.1c1.2,0.1,2.5,0.1,3.7-0.7
			c-0.7-6-1.4-11.9-2.1-18.1c-1.5,0.2-2.7,0.3-4.1,0.5C382.3,439,382.7,442.1,383,445.3z M130.2,459.3c0.4-3.3,0.8-6.4,1.3-10
			c0.6,1.1,0.9,1.6,1.1,2.2c1.2,2.4,2.3,4.8,3.4,7.2c0.2,0.5,0.6,1.2,1,1.3c1.2,0.3,2.4,0.3,3.8,0.4c0.7-6.3,1.5-12.2,2-18.4
			c-1.5-0.1-2.7-0.2-4.1-0.3c-0.4,3.3-0.8,6.4-1.2,9.5c-0.6-0.4-0.9-0.9-1.1-1.3c-1.2-2.6-2.4-5.1-3.6-7.7c-0.5-1.1-1.2-1.6-2.4-1.6
			c-0.8,0-1.6,0-2.5,0c-0.6,6.2-1.6,12.1-1.9,18.2C127.7,459.1,128.8,459.2,130.2,459.3z M250.1,456.9c-0.1-2.8-1.1-4.7-3.4-5.6
			c-2.5-1-5.1-1-7.6,0c-2,0.8-3,2.3-3.2,4.4c-0.1,2.1,0.8,3.8,2.6,4.8c1.2,0.6,2.6,1,4,1.4c0.8,0.3,1.6,0.3,2.3,0.7
			c0.5,0.2,1.1,0.8,1.1,1.2c0,0.6-0.5,1.3-0.9,1.6c-1.7,1.1-4.1,0.3-5-1.6c-0.2-0.4-0.4-0.9-0.6-1.4c-0.7,0.1-1.3,0.1-1.9,0.2
			c-0.6,0.1-1.3,0.2-1.9,0.3c-0.2,3.1,1.3,5.4,4,6.3c2.3,0.8,4.7,0.8,7,0c3.2-1,4.8-4.3,3.7-7.5c-0.6-1.9-2-2.9-3.7-3.5
			c-1.7-0.5-3.4-1-5.1-1.6c-0.4-0.1-1-0.8-1-1c0.2-0.5,0.6-1,1.1-1.2c1.9-0.7,3-0.1,4.3,2.2C247.2,456.9,248.5,456.9,250.1,456.9z
			 M329,453.7c0.3,3.3,2.1,5.6,4.9,6c2.3,0.3,4.6,0.2,6.8-0.8c2.2-1,3.5-3.2,3.4-5.5c-0.1-2.6-1.6-4.4-4.1-5.2
			c-0.8-0.2-1.6-0.3-2.4-0.5c-1.1-0.2-2.2-0.3-3.3-0.6c-0.5-0.1-0.9-0.6-1.3-1c0.4-0.5,0.8-1.1,1.3-1.3c1.8-0.8,2.9-0.2,4.4,1.9
			c1.3-0.2,2.6-0.5,4-0.7c-0.3-2.7-1.6-4.4-4-5.1c-2.7-0.7-5.3-0.4-7.7,1c-1.8,1-2.5,2.6-2.4,4.7c0.1,1.9,1,3.4,2.8,4.2
			c1,0.5,2.1,0.7,3.2,0.9c1.2,0.3,2.5,0.3,3.7,0.6c0.5,0.1,1.2,0.7,1.2,1.1c0,0.5-0.3,1.3-0.8,1.7c-1.4,1.2-4,0.8-5.1-0.8
			c-0.3-0.4-0.5-0.9-0.8-1.4C331.6,453.2,330.3,453.5,329,453.7z M86.8,442.7c-3.1-0.4-6-0.8-8.8-1.1c0.1-1.1,0.3-1.9,0.4-2.9
			c2.5,0.2,4.8,0.4,7.1,0.7c2.4,0.3,2.4,0.3,2.5-2c0-0.5-0.1-1-0.1-1.6c-4.6-0.5-9-1.2-13.6-1.4c-0.7,6.2-1.6,12.2-2,18.4
			c4.9,0.4,9.4,1.2,14.2,1.4c0-1.4,0-2.5,0-3.7c-3.2-0.4-6.2-0.8-9.4-1.1c0.1-1.3,0.2-2.5,0.3-3.8c3,0.3,5.8,0.6,8.8,0.9
			C86.4,445.2,86.6,444.1,86.8,442.7z M395.8,448.8c-0.1-1.4-0.2-2.5-0.4-3.8c3-0.4,5.7-0.7,8.7-1.1c-0.2-1.4-0.3-2.5-0.5-3.8
			c-3,0.3-5.8,0.6-8.7,0.9c-0.1-1.1-0.2-2-0.3-2.9c3.2-0.4,6.2-0.8,9.4-1.2c-0.2-1.4-0.4-2.5-0.6-3.8c-4.7,0.5-9.2,1.1-13.8,1.6
			c0.7,6.3,1.4,12.3,2.1,18.4c4.9-0.5,9.5-1,14.2-1.7c-0.2-1.3-0.3-2.4-0.4-3.7C402.2,448.1,399.1,448.5,395.8,448.8z M253.5,451.1
			c0,6.2,0,12.2,0,18.3c4.8,0,9.4,0,14,0c0-1.3,0-2.4,0-3.7c-3.3-0.2-6.5,0.1-9.5-0.2c0-1.4,0-2.6,0-3.9c3,0,5.7,0,8.6,0
			c0-1.3,0-2.4,0-3.7c-3,0-5.8,0-8.6,0c0-1.2,0-2,0-3.1c3.2,0,6.1,0,9.3,0c-0.1-1.4-0.1-2.5-0.2-3.7
			C262.4,451.1,258,451.1,253.5,451.1z M345.4,439.9c0.7,6.2,1.4,12.2,2.1,18.4c1.5-0.2,2.9-0.4,4.4-0.5c-0.3-2.7-0.5-5.1-0.8-7.6
			c1.1-0.1,2-0.3,3-0.4c1-0.1,2-0.2,3-0.3c0.3,2.6,0.6,4.9,0.9,7.6c1.5-0.2,2.9-0.4,4.4-0.6c-0.7-6.2-1.3-12.2-2.2-18.3
			c-1.6,0.2-2.9,0.3-4.3,0.5c0.2,2.4,0.4,4.6,0.7,6.9c-2.1,0.2-4,0.4-5.9,0.6c-0.3-2.4-0.7-4.6-1-6.9
			C348.2,439.5,346.9,439.7,345.4,439.9z M100.2,451.9c0.4,1.5,0.8,2.8,1.2,4.2c1.5,0,2.9,0.7,4.5,0.2c-0.1-0.7-0.2-1.3-0.4-1.8
			c-1.2-4.4-2.4-8.9-3.7-13.3c-1.3-4.7-0.2-3.7-5-4.2c-0.1,0-0.3,0.1-0.6,0.2c-2.9,5.6-5.9,11.3-9.1,17.3c1.8,0.2,3.2,0.4,4.7,0.6
			c0.7-1.3,1.3-2.5,2-3.8C96,451.4,98,451.7,100.2,451.9z M56.6,451c4.6,0.3,8.8,1.2,13.3,1.3c0.1-1.3,0.2-2.4,0.3-3.6
			c-3-0.4-5.7-0.7-8.7-1.1c0.5-4.8,1-9.5,1.5-14.4c-1.5-0.2-2.8-0.4-4.4-0.6C58,438.8,57.3,444.7,56.6,451z M370.2,455.7
			c-0.7-6.3-1.4-12.2-2.1-18.4c-1.6,0.2-2.9,0.3-4.4,0.5c0.7,6.2,1.4,12.2,2.1,18.4C367.3,456,368.6,455.9,370.2,455.7z
			 M228.5,451.1c0,6.2,0,12.2,0,18.3c1.6,0,2.9,0,4.3,0c0-6.2,0-12.2,0-18.3C231.3,451.1,230.1,451.1,228.5,451.1z"/>
		<path class="st0" d="M247.3,319.1c0,6.3,0,12.5,0,19.2c0.6-0.6,1-0.8,1.3-1.2c2.2-2.7,5-4.5,7.9-6.3c7.4-4.6,15.3-8,23.4-11
			c4.3-1.5,8.6-3,12.9-4.6c0.3-0.1,0.7-0.3,1-0.4c1.5-0.4,2.1-1.3,2-2.9c-0.1-5,0-10.1,0-15.1c0-13.7,0-27.3,0-41c0-2,0.5-3.4,1.7-5
			c7.2-8.9,14.3-18,21.5-27c0.6-0.8,1-1.8,2.2-2c0.5,1.6,0.7,105.4,0.2,108.7c-1.5,0.3-3.1,0.5-4.7,0.6c-2.6,0.1-5.2,0.5-7.8,1
			c-7.2,1.2-14.3,3-21.1,5.6c-11.7,4.5-22.1,10.8-30.6,20.1c-4.9,5.5-8.7,11.6-10.9,18.7c-0.1,0.4-0.3,0.8-0.4,1.3
			c-0.1,0.2-0.2,0.4-0.4,0.6c-6.2,0-12.3,0-18.6,0c-0.4-1.5-0.8-3.1-1.3-4.6c-2.5-7.7-6.8-14.3-12.4-20.1c-8-8.1-17.5-13.9-28.1-18
			c-6-2.4-12.2-4.1-18.5-5.3c-3.8-0.7-7.6-1.1-11.4-1.7c-0.3,0-0.6-0.1-0.9-0.2c0-35.5,0-70.9,0-106.8c0.7,0.7,1.2,1,1.6,1.5
			c6.3,7.6,12.7,15.3,19,23c0.1,0.1,0.2,0.2,0.3,0.4c1.2,1.5,2.9,2.8,3.5,4.5c0.6,1.7,0.2,3.8,0.2,5.7c0,17.6,0,35.2,0,52.8
			c0,1.6,0,3.1,0,4.7c4.2,0.6,8.4,1.4,12.4,3c7.4,3,14.3,6.8,20.9,11.3c3.8,2.6,7.6,5.1,11.4,7.6c0.4,0.2,0.6,0.6,1,0.9
			c1,0.8,2,1.7,3.2,2.6c0-7.1,0-13.9,0-20.5c-2.3-1.3-4.6-2.4-6.6-3.8c-4.4-3.1-7.2-7.3-8.2-12.7c-0.9-5.2,0.9-9.4,3.8-13.3
			c3.7-4.8,8.8-7.4,14.6-8.7c1.8-0.4,3.6-0.7,5.4-0.9c0.5-0.1,1-0.1,1.6,0c4.1,0.6,8.2,1.1,12,2.9c4.7,2.3,8.8,5.4,11,10.3
			c1,2.2,1.7,4.6,2.1,7c0.2,1.4-0.4,3-0.8,4.5c-1.6,6.1-5.6,10.1-11,13C250,318,248.6,318.6,247.3,319.1z"/>
		<path class="st0" d="M202.6,165.7c4.3-2.2,8.2-4.3,12.4-6.4c0.7,1,1.6,2.1,2.3,3.2c1,1.5,2,3,2.8,4.5c0.6,1,1.4,1,2.2,0.8
			c1.6-0.4,3.2-1.4,4.7-1.4c1.5,0,2.6-0.7,4-1c0-3.2,0-6.4,0-9.6c1.6-0.5,11.2-0.6,14.4-0.2c0,3.1,0,6.3,0,9.6
			c3.4,1.4,6.9,1.7,10.2,2.8c1.9-3,3.8-5.8,5.8-8.8c4.2,2.2,8.3,4.3,12.5,6.5c-2,3.1-3.8,6-5.7,8.9c2.5,2.2,4.9,4.4,7.4,6.6
			c3.3-1.7,6.5-3.3,9.9-5.1c2.5,3.8,4.8,7.4,7.4,11.3c-3.3,1.8-6.5,3.5-9.9,5.3c0.9,2.9,1.7,5.8,2.6,9c3.6,0,7.4,0,11.4,0
			c0.3,4.4,0.2,8.6,0.1,13c-4,0.4-7.8-0.1-11.5,0.3c-0.9,3-1.8,5.8-2.7,8.9c3.2,1.7,6.5,3.4,9.9,5.2c-2.3,3.7-4.8,7.4-7.3,11.4
			c-3.3-1.7-6.6-3.4-9.9-5.1c-2.5,2.2-4.9,4.3-7.4,6.6c1.9,3,3.9,6.1,5.7,9c-4.1,2.1-8.3,4.3-12.6,6.5c-1.5-2.4-3.1-4.8-4.7-7.3
			c-0.4-0.5-0.7-1.2-1.2-1.5c-0.3-0.2-1,0.4-1.5,0.5c-2.7,0.6-5.4,1.1-8.4,1.7c0,3.3,0,6.7,0,10c-2.3,0.6-12.7,0.5-14.6-0.1
			c0-3.2,0-6.6,0-9.7c-3.5-0.9-6.7-1.7-10.1-2.5c-1.9,2.8-3.8,5.8-5.8,8.8c-3.9-2-7.8-3.9-11.6-5.9c-0.3-0.1-0.4-0.6-0.7-1
			c1.8-2.8,3.6-5.6,5.4-8.5c-2.4-2.2-4.7-4.3-7.3-6.7c-2.7,1.4-5.5,2.8-8.3,4.3c-1.6,0.9-1.7,0.9-2.6-0.5c-2.1-3.3-4.2-6.6-6.4-10
			c3.3-1.8,6.6-3.5,9.9-5.3c-0.9-2.9-1.9-5.8-2.9-8.9c-3.7,0-7.4,0-11.2,0c0-4.4,0-8.6,0-13c3.7,0,7.4,0,11.2,0c1-3.1,1.9-6,2.9-9.2
			c-3.3-1.8-6.6-3.5-9.9-5.3c2.2-3.5,4.3-6.7,6.4-9.9c0.6-0.9,1-1.4,2.3-0.7c2.7,1.6,5.6,2.9,8.5,4.4c2.4-2.2,4.8-4.4,7.2-6.6
			C206.3,171.7,204.4,168.8,202.6,165.7z M274.7,220.6l0-0.1c1-1.1,1.4-2.4,1.3-3.9l0-0.1c0.3-0.5,0.7-1,0.8-1.5
			c0.9-5.7,1-11.3-0.9-16.8c-0.9-2.7-2.3-5.3-3.5-7.9c-0.1-0.2-0.3-0.3-0.4-0.5l0,0c0.1-1.4-0.4-2.6-1.5-3.5c-1-0.8-2.1-1.6-3.1-2.3
			c-0.9-0.6-1.8-1.2-2.6-1.8l0,0c0-0.1,0-0.2-0.1-0.2c-2.3-1.7-4.4-3.9-6.9-5.1c-4.4-2-8.9-4-13.9-4.1c-3.8-0.1-7.6-0.6-11.3-0.3
			c-5.8,0.5-11.3,2.4-16.3,5.4c-4,2.4-7.7,5.2-10.5,9.1c-1.3,1.8-2.5,3.6-3.8,5.4c-2.1,1.2-2.8,3.3-3.1,5.6
			c-0.3,2.1-0.5,4.3-1.1,6.3c-0.6,2.2-0.8,4.4-0.7,6.6c0.2,2.3,0.7,4.5,2.6,6.1c0.4,0.8,0.8,1.6,1.1,2.4c3.2,8.9,9.1,15.3,17.5,19.6
			c9.2,4.7,18.9,5.8,29,3.6c7.2-1.6,13.7-4.8,19.1-10c3.4-3.2,5.9-7.1,7.9-11.2C274.5,221.1,274.6,220.9,274.7,220.6z"/>
		<path class="st0" d="M125.1,530c0-0.7,0-1.4,0-2.1c0-8.3,0-16.6,0-24.9c0-0.5,0-1,0-1.6c0.1-1.3,0.6-1.9,1.9-1.9
			c2.6,0,5.2,0,7.8,0c1.2,0,1.8,0.5,1.8,1.7c0,1.3,0,2.6,0,3.9c0,14.6,0,29.2,0,43.9c0,0.4,0,0.9,0,1.3c0,1.9-0.3,2.2-2.2,2.3
			c-3.2,0-6.4,0-9.7,0c-6.2-10-12.4-20-18.9-30.5c-0.1,1-0.2,1.5-0.2,2.1c0,8.5,0,17.1,0,25.6c0,2.6-0.2,2.8-2.8,2.8
			c-2.2,0-4.3,0-6.5,0c-2,0-2.3-0.3-2.3-2.3c0-5.2,0-10.4,0-15.6c0-10.6,0-21.2,0-31.8c0-0.5,0-1,0-1.6c0.1-1.3,0.5-1.7,1.8-1.8
			c3-0.1,5.9,0,8.9,0c0.9,0,1.3,0.6,1.7,1.2c1.7,2.8,3.4,5.6,5.1,8.3c4,6.5,7.9,12.9,11.9,19.4c0.3,0.6,0.7,1.1,1.1,1.7
			C124.8,530.1,124.9,530,125.1,530z"/>
		<path class="st0" d="M182.8,552.6c-1.5-4-3-7.7-4.4-11.5c-6.3,0-12.6,0-19.1,0c-1.4,3.8-2.8,7.6-4.3,11.5c-3.7,0-7.3,0-11,0
			c-1.1,0-1.6-0.9-1.3-2c0.1-0.5,0.3-1,0.5-1.5c6.2-15.8,12.3-31.6,18.5-47.5c0.3-0.7,0.6-1.3,0.9-2.1c4.1,0,8.1,0,12.2,0
			c0.5,1.3,1.1,2.5,1.6,3.8c6.1,15.2,12.1,30.4,18.3,45.6c1.1,2.7,0.9,3.7-2.5,3.6C189.2,552.5,186.1,552.6,182.8,552.6z
			 M174.3,530.3c-1.9-5-3.6-9.8-5.4-14.5c-0.1,0-0.3,0-0.4,0c-1.7,4.8-3.5,9.5-5.3,14.5C167,530.3,170.4,530.3,174.3,530.3z"/>
		<path class="st0" d="M239.4,12.3c1.2,0,1.9-0.1,2.6,0c9,1,16.6,4.7,22.6,11.5c3.3,3.7,5.8,8.1,6.6,13.1c0.6,3.4,1.4,6.8,1,10.4
			c-0.9,8.3-4.5,15.3-10.6,20.9c-4.3,4-9.3,6.9-15,8.3c-14.2,3.5-26.6,0.2-36.5-10.8c-2.8-3.1-5-6.8-5.8-11.3c0.4,0.4,0.8,0.6,1,0.9
			c6.1,7.6,14.2,11,23.8,10.7c13-0.3,24.6-9,27.8-21.7c1.7-6.5,0.8-12.7-2.3-18.7c-3.1-6-8-10-14.1-12.6c-0.2-0.1-0.4-0.2-0.6-0.3
			C239.9,12.8,239.8,12.7,239.4,12.3z"/>
		<path class="st0" d="M381.5,535.3c-1.6,10.3-9.6,17.6-19.7,18.1c-3.1,0.2-6.2,0.2-9.3-0.7c-8.9-2.6-14.4-8.6-16.6-17.5
			c-1.6-6.5-1.4-13.1,0.5-19.6c2.9-10,11.2-16.5,21.8-17c5.8-0.3,11.2,0.8,16,4.4c3.5,2.6,5.6,6.2,6.9,10.4c0.4,1.3,0.1,2-1.2,2.4
			c-2.9,0.7-5.8,1.4-8.7,2c-1.4,0.3-1.7,0-2.3-1.7c-0.9-2.7-2.6-4.7-5.2-5.8c-4.9-2-11.6-0.7-14.4,5.6c-1.1,2.6-1.5,5.3-1.6,8
			c-0.2,4.1,0,8.2,1.5,12c2.1,5.3,7.5,7.9,12.9,6.3c2.3-0.7,4.2-2,5.3-4.1c0.8-1.5,1.3-3.1,2-4.7c0.5-1.2,1.1-1.7,2.2-1.3
			C374.8,533.1,378.1,534.2,381.5,535.3z"/>
		<path class="st0" d="M221.6,552.5c-4.2,0-8.2,0-12.3,0c-0.2-0.4-0.4-0.8-0.6-1.2c-5.8-16.3-11.6-32.5-17.4-48.8
			c-0.1-0.4-0.3-0.8-0.4-1.3c-0.2-1,0.4-1.8,1.4-1.8c3.7,0,7.4,0,11.2,0c4,11.7,8,23.4,12.2,35.6c2.3-6.3,4.1-12.2,6-18
			c1.9-5.8,3.9-11.6,5.8-17.5c3.7,0,7.3,0,10.8,0c1.3,0,1.8,0.8,1.5,2.1c-0.1,0.4-0.2,0.7-0.4,1c-5.8,16.1-11.5,32.2-17.3,48.4
			C222.1,551.5,221.9,551.9,221.6,552.5z"/>
		<path class="st0" d="M257,510.2c-4.4,0-8.4,0-12.4,0c-2.5,0-2.8-0.3-2.8-2.8c0-1.9,0-3.7,0-5.6c0-1.8,0.5-2.2,2.2-2.3
			c2.2,0,4.3,0,6.5,0c10.2,0,20.5,0,30.7,0c0.5,0,1,0,1.6,0c1.1,0.1,1.7,0.6,1.7,1.7c0,2.4,0.1,4.8,0,7.1c0,1.4-0.6,1.8-2.2,1.8
			c-3.5,0-7,0-10.5,0c-0.7,0-1.5,0-2.5,0c0,1,0,1.8,0,2.5c0,12.1,0,24.2,0,36.3c0,0.5,0,1,0,1.6c-0.1,1.6-0.4,2-2,2
			c-2.8,0-5.6,0-8.5,0c-1.4,0-1.8-0.5-1.9-1.9c0-0.5,0-1,0-1.6c0-12.1,0-24.2,0-36.3C257,512,257,511.2,257,510.2z"/>
		<path class="st0" d="M314.9,510.1c0,1.2,0,2,0,2.8c0,12.1,0,24.2,0,36.3c0,0.6,0,1.2,0,1.8c0,1-0.5,1.6-1.5,1.6c-3,0-6.1,0-9.1,0
			c-1,0-1.5-0.6-1.6-1.5c0-0.6,0-1.2,0-1.8c0-12.2,0-24.3,0-36.5c0-0.8,0-1.6,0-2.6c-1.2,0-2.1,0-3.1,0c-3.3,0-6.5,0-9.8,0
			c-2,0-2.3-0.4-2.3-2.4c0-2,0-4,0-6c0-1.8,0.4-2.3,2.2-2.3c12.7,0,25.4,0,38.1,0c1.9,0,2.3,0.4,2.3,2.4c0,2,0,4,0,6
			c0,1.8-0.4,2.2-2.2,2.2c-3.5,0-7,0-10.5,0C316.6,510.1,315.9,510.1,314.9,510.1z"/>
		<g>
			<path class="st1" d="M151.5,201.8c5.5-0.1,11.3,0.3,16.9,1.8c1.9,0.5,3.8,1.3,5.5,2.3c1.9,1.3,1.8,2.8-0.2,4
				c-1.6,0.9-3.3,1.7-5.1,2.1c-11.8,2.8-23.7,2.8-35.5-0.1c-1.6-0.4-3.2-1.1-4.6-2c-1.9-1.2-1.9-2.8,0-4.1c1.3-0.8,2.8-1.4,4.2-1.9
				C137.8,202.4,143.3,201.8,151.5,201.8z"/>
			<path class="st2" d="M145.6,157.2c4,0.2,7.7,1.4,11.3,2.8c7.3,2.9,14.3,6.5,20.5,11.5c1.9,1.5,3.5,3.4,5.1,5.2
				c0.5,0.5,0.7,1.3,0.9,2c0.3,1.3-0.3,2.3-1.5,2.6c-1.2,0.3-2.5,0.3-3.7,0.2c-4.5-0.4-8.7-2-12.7-3.8c-6.4-2.8-12.6-6.1-18-10.5
				c-1.3-1.1-2.6-2.3-3.7-3.5c-0.7-0.8-1.4-1.7-1.9-2.7c-0.9-1.8-0.1-3.2,1.9-3.6C144.4,157.2,145.1,157.3,145.6,157.2z"/>
			<path class="st2" d="M296.4,181.7c-0.1,0-0.1,0-0.2,0c-1.3-0.1-2.8-0.1-3.5-1.5c-0.7-1.4,0.1-2.6,0.9-3.7
				c2.2-3.1,5.3-5.4,8.4-7.5c6.9-4.6,14.2-8.4,22.2-10.6c2.1-0.6,4.4-0.8,6.5-1.1c0.6-0.1,1.2,0,1.8,0.2c1.9,0.5,2.6,1.7,1.7,3.5
				c-0.6,1.2-1.5,2.4-2.4,3.4c-2.8,3-6.2,5.3-9.6,7.5c-5.6,3.5-11.5,6.4-17.9,8.3c-2.5,0.8-5.2,1.2-7.8,1.8
				C296.4,181.8,296.4,181.7,296.4,181.7z"/>
			<path class="st2" d="M300.8,206.8c1.2-1.6,2.9-2.2,4.7-2.8c4.7-1.5,9.5-2.1,14.4-2.2c6.8-0.2,13.6-0.2,20.3,1.4
				c1.9,0.5,3.8,1.1,5.7,1.9c1.1,0.5,2.4,1.2,2.5,2.6c0.1,1.6-1.2,2.4-2.4,2.9c-2.2,0.8-4.5,1.7-6.8,2.1c-10.8,2-21.7,2-32.4-0.6
				c-0.8-0.2-1.6-0.5-2.3-0.7C302.5,210.6,300.8,209.6,300.8,206.8z"/>
			<path class="st2" d="M294.8,125.5c-0.2,3.4-1.5,6.6-2.9,9.8c-3.4,7.2-7.7,13.9-13.3,19.6c-1.7,1.7-3.7,3.2-5.8,4.4
				c-2.8,1.5-4.8,0.2-4.5-3c0.2-2.5,0.8-5,1.7-7.3c3.4-8.5,8.2-16.1,14.7-22.6c1.6-1.6,3.5-3,5.5-4.1
				C293,120.6,294.9,121.9,294.8,125.5z"/>
			<path class="st2" d="M181.6,125.9c0-0.5,0-1,0.1-1.5c0.3-1.7,1.6-2.6,3.3-2c1.5,0.6,3,1.3,4.2,2.3c3.8,2.9,6.8,6.6,9.5,10.5
				c3.4,4.9,6.5,10.1,8.3,15.9c0.6,2,1.1,4,1.2,6.1c0.1,2.9-1.9,4.1-4.4,2.8c-1.9-1-3.8-2.3-5.4-3.9c-7.2-7.2-12.6-15.5-15.9-25.1
				c-0.6-1.6-0.8-3.3-1.2-5C181.5,125.9,181.5,125.9,181.6,125.9z"/>
			<path class="st1" d="M244.9,128.1c-0.1,5.5-0.5,11-2.3,16.2c-0.4,1.2-1,2.5-1.7,3.6c-1.7,2.5-3.6,2.5-5.3,0
				c-1-1.5-1.7-3.1-2.2-4.8c-1.9-6.9-2.2-14-1.6-21.2c0.3-4,1-7.9,2.5-11.7c0.4-1,1-2,1.7-2.9c1.4-1.6,3-1.7,4.3,0
				c0.9,1.1,1.6,2.5,2.1,3.9C244.4,116.7,244.8,122.4,244.9,128.1z"/>
		</g>
		<path class="st0" d="M231.6,38.6c-0.2,3.3-0.4,6.6-0.7,10.4c-2.6-2.8-4-6.1-6.3-8.6c-3.4,0.8-6.7,1.7-10.6,2.7
			c2.5-3,4.7-5.6,7-8.3c-1.9-2.8-3.8-5.6-5.7-8.4c0.1-0.1,0.1-0.2,0.2-0.4c3.3,1.1,6.6,2.3,10.1,3.5c2.3-2.6,4.6-5.2,6.8-7.7
			c0.1,0.1,0.2,0.1,0.4,0.2c-0.2,3.3-0.3,6.5-0.5,9.9c3.2,1.2,6.3,2.3,9.4,3.4C238.5,37.1,235,37.2,231.6,38.6z"/>
		<ellipse class="st0" cx="237.5" cy="207.9" rx="44" ry="38.2"/>
		<ellipse class="st1" cx="237" cy="207.9" rx="39.8" ry="35.8"/>
		<path class="st0" d="M274.3,221.4c0.1-0.3,0.2-0.5,0.3-0.8C274.6,220.9,274.5,221.1,274.3,221.4z"/>
		<path class="st0" d="M272.5,190.3c-0.1-0.2-0.3-0.3-0.4-0.5C272.2,189.9,272.3,190.1,272.5,190.3z"/>
		<path class="st0" d="M214.7,458.3c0-1.2,0-2.2,0-3.4c1.6,0,3.1-0.1,4.6,0c0.9,0,1.5,0.6,1.5,1.6c0.1,1.1-0.6,1.7-1.6,1.8
			C217.8,458.4,216.4,458.3,214.7,458.3z"/>
		<path class="st0" d="M113.8,442.7c1.7,0.2,3.1,0.4,4.6,0.6c1,0.2,1.5,0.8,1.4,1.9c-0.1,1.1-0.8,1.6-1.8,1.6
			c-1.5-0.1-2.9-0.3-4.6-0.5C113.5,445,113.6,444,113.8,442.7z"/>
		<path class="st0" d="M95.7,447.6c0.8-1.6,1.4-2.9,2-4.1c0.1,0,0.3,0,0.4,0.1c0.3,1.3,0.7,2.6,1.1,4.3
			C98.1,447.7,97.1,447.7,95.7,447.6z"/>
	</g>
	<g>
		<path class="st0" d="M564.3,255.9v-112h21.4l66.1,80.6h-10.4v-80.6H667v112h-21.3l-66.2-80.6h10.4v80.6H564.3z"/>
		<path class="st0" d="M672.3,255.9l49.9-112h25.6l50.1,112h-27.2l-41-98.9h10.2l-41.1,98.9H672.3z M697.2,231.9l6.9-19.7h57.6
			l7,19.7H697.2z"/>
		<path class="st0" d="M813.5,255.9v-90.9h-35.8v-21.1h97.6v21.1h-35.8v90.9H813.5z"/>
		<path class="st0" d="M881.4,255.9v-112h25.9v112H881.4z"/>
		<path class="st0" d="M981.8,257.9c-8.9,0-17-1.4-24.6-4.3c-7.5-2.9-14-6.9-19.5-12.2c-5.5-5.2-9.8-11.4-12.8-18.4
			s-4.6-14.7-4.6-23s1.5-16,4.6-23s7.3-13.2,12.9-18.4c5.5-5.2,12.1-9.3,19.5-12.2c7.5-2.9,15.6-4.3,24.3-4.3c8.9,0,17,1.4,24.4,4.3
			c7.4,2.9,13.9,6.9,19.4,12.2c5.5,5.2,9.8,11.3,12.9,18.3c3.1,7,4.6,14.7,4.6,23.1c0,8.3-1.5,16-4.6,23.1
			c-3.1,7.1-7.4,13.2-12.9,18.4c-5.5,5.2-11.9,9.2-19.4,12.1C998.7,256.4,990.6,257.9,981.8,257.9z M981.7,235.8
			c5,0,9.6-0.9,13.8-2.6c4.2-1.7,7.9-4.2,11.1-7.4c3.2-3.2,5.7-7,7.4-11.4c1.8-4.4,2.6-9.2,2.6-14.6c0-5.3-0.9-10.2-2.6-14.6
			c-1.8-4.4-4.2-8.2-7.4-11.4c-3.1-3.2-6.9-5.7-11.1-7.4c-4.3-1.7-8.9-2.6-13.9-2.6c-5,0-9.6,0.9-13.8,2.6
			c-4.2,1.7-7.9,4.2-11.1,7.4c-3.2,3.2-5.7,7-7.4,11.4c-1.8,4.4-2.6,9.2-2.6,14.6c0,5.2,0.9,10.1,2.6,14.5c1.8,4.4,4.2,8.2,7.4,11.4
			c3.1,3.2,6.9,5.7,11.1,7.4C972,234.9,976.7,235.8,981.7,235.8z"/>
		<path class="st0" d="M1055.8,255.9v-112h21.4l66.1,80.6h-10.4v-80.6h25.6v112h-21.3l-66.2-80.6h10.4v80.6H1055.8z"/>
		<path class="st0" d="M1163.8,255.9l49.9-112h25.6l50.1,112h-27.2l-41-98.9h10.2l-41.1,98.9H1163.8z M1188.8,231.9l6.9-19.7h57.6
			l7,19.7H1188.8z"/>
		<path class="st0" d="M1294.6,255.9v-112h25.9v90.9h56.2v21.1H1294.6z"/>
		<path class="st0" d="M1462.1,255.9l-48.3-112h28l42.2,99.2h-16.5l42.9-99.2h25.8l-48.5,112H1462.1z"/>
		<path class="st0" d="M1590.6,257.9c-8.9,0-17-1.4-24.6-4.3c-7.5-2.9-14-6.9-19.5-12.2c-5.5-5.2-9.8-11.4-12.8-18.4
			s-4.6-14.7-4.6-23s1.5-16,4.6-23s7.3-13.2,12.9-18.4c5.5-5.2,12.1-9.3,19.5-12.2c7.5-2.9,15.6-4.3,24.3-4.3c8.9,0,17,1.4,24.4,4.3
			c7.4,2.9,13.9,6.9,19.4,12.2c5.5,5.2,9.8,11.3,12.9,18.3c3.1,7,4.6,14.7,4.6,23.1c0,8.3-1.5,16-4.6,23.1
			c-3.1,7.1-7.4,13.2-12.9,18.4c-5.5,5.2-11.9,9.2-19.4,12.1C1607.5,256.4,1599.4,257.9,1590.6,257.9z M1590.5,235.8
			c5,0,9.6-0.9,13.8-2.6c4.2-1.7,7.9-4.2,11.1-7.4c3.2-3.2,5.7-7,7.4-11.4c1.8-4.4,2.6-9.2,2.6-14.6c0-5.3-0.9-10.2-2.6-14.6
			c-1.8-4.4-4.2-8.2-7.4-11.4c-3.1-3.2-6.9-5.7-11.1-7.4c-4.3-1.7-8.9-2.6-13.9-2.6c-5,0-9.6,0.9-13.8,2.6
			c-4.2,1.7-7.9,4.2-11.1,7.4c-3.2,3.2-5.7,7-7.4,11.4c-1.8,4.4-2.6,9.2-2.6,14.6c0,5.2,0.9,10.1,2.6,14.5c1.8,4.4,4.2,8.2,7.4,11.4
			c3.1,3.2,6.9,5.7,11.1,7.4C1580.8,234.9,1585.5,235.8,1590.5,235.8z"/>
		<path class="st0" d="M1718.6,257.9c-8.6,0-16.7-1.4-24.1-4.2c-7.4-2.8-13.8-6.9-19.3-12.1c-5.4-5.2-9.7-11.4-12.7-18.4
			s-4.6-14.8-4.6-23.2c0-8.4,1.5-16.2,4.6-23.2s7.3-13.2,12.8-18.4c5.5-5.2,11.9-9.3,19.3-12.1c7.4-2.8,15.4-4.2,24.2-4.2
			c9.7,0,18.5,1.7,26.3,5c7.8,3.4,14.4,8.3,19.8,14.8l-16.6,15.4c-3.8-4.4-8.1-7.7-12.8-9.8c-4.7-2.2-9.8-3.3-15.4-3.3
			c-5.2,0-10,0.9-14.4,2.6c-4.4,1.7-8.2,4.2-11.4,7.4c-3.2,3.2-5.7,7-7.4,11.4c-1.8,4.4-2.6,9.2-2.6,14.6c0,5.3,0.9,10.2,2.6,14.6
			c1.8,4.4,4.2,8.2,7.4,11.4c3.2,3.2,7,5.7,11.4,7.4c4.4,1.7,9.2,2.6,14.4,2.6c5.5,0,10.7-1.1,15.4-3.3c4.7-2.2,9-5.5,12.8-10
			l16.6,15.4c-5.3,6.5-11.9,11.5-19.8,14.9C1737.2,256.2,1728.4,257.9,1718.6,257.9z"/>
		<path class="st0" d="M1762.3,255.9l49.9-112h25.6l50.1,112h-27.2l-41-98.9h10.2l-41.1,98.9H1762.3z M1787.2,231.9l6.9-19.7h57.6
			l7,19.7H1787.2z"/>
		<path class="st0" d="M1903.5,255.9v-90.9h-35.8v-21.1h97.6v21.1h-35.8v90.9H1903.5z"/>
		<path class="st0" d="M1971.5,255.9v-112h25.9v112H1971.5z"/>
		<path class="st0" d="M2071.9,257.9c-8.9,0-17-1.4-24.6-4.3c-7.5-2.9-14-6.9-19.5-12.2c-5.5-5.2-9.8-11.4-12.8-18.4
			s-4.6-14.7-4.6-23s1.5-16,4.6-23s7.3-13.2,12.9-18.4c5.5-5.2,12.1-9.3,19.5-12.2c7.5-2.9,15.6-4.3,24.3-4.3c8.9,0,17,1.4,24.4,4.3
			c7.4,2.9,13.9,6.9,19.4,12.2c5.5,5.2,9.8,11.3,12.9,18.3c3.1,7,4.6,14.7,4.6,23.1c0,8.3-1.5,16-4.6,23.1
			c-3.1,7.1-7.4,13.2-12.9,18.4c-5.5,5.2-11.9,9.2-19.4,12.1C2088.7,256.4,2080.6,257.9,2071.9,257.9z M2071.7,235.8
			c5,0,9.6-0.9,13.8-2.6c4.2-1.7,7.9-4.2,11.1-7.4c3.2-3.2,5.7-7,7.4-11.4c1.8-4.4,2.6-9.2,2.6-14.6c0-5.3-0.9-10.2-2.6-14.6
			c-1.8-4.4-4.2-8.2-7.4-11.4c-3.1-3.2-6.9-5.7-11.1-7.4c-4.3-1.7-8.9-2.6-13.9-2.6c-5,0-9.6,0.9-13.8,2.6
			c-4.2,1.7-7.9,4.2-11.1,7.4c-3.2,3.2-5.7,7-7.4,11.4c-1.8,4.4-2.6,9.2-2.6,14.6c0,5.2,0.9,10.1,2.6,14.5c1.8,4.4,4.2,8.2,7.4,11.4
			c3.1,3.2,6.9,5.7,11.1,7.4C2062,234.9,2066.7,235.8,2071.7,235.8z"/>
		<path class="st0" d="M2145.8,255.9v-112h21.4l66.1,80.6h-10.4v-80.6h25.6v112h-21.3l-66.2-80.6h10.4v80.6H2145.8z"/>
		<path class="st0" d="M2253.8,255.9l49.9-112h25.6l50.1,112h-27.2l-41-98.9h10.2l-41.1,98.9H2253.8z M2278.8,231.9l6.9-19.7h57.6
			l7,19.7H2278.8z"/>
		<path class="st0" d="M2384.6,255.9v-112h25.9v90.9h56.2v21.1H2384.6z"/>
		<path class="st0" d="M2553.7,257.9c-8.2,0-15.5-1.3-21.9-4c-6.4-2.7-11.5-6.3-15.2-10.9c-3.7-4.6-5.6-9.9-5.6-15.8
			c0-5.5,1.2-10.5,3.7-15c2.5-4.4,6.3-8.6,11.7-12.5c5.3-3.9,12.1-7.7,20.3-11.4c6-2.8,10.7-5.2,14.1-7.4c3.4-2.1,5.8-4.2,7.2-6.2
			c1.4-2,2.1-4,2.1-6c0-2.8-0.9-5-2.8-6.7c-1.9-1.7-4.6-2.6-8.2-2.6c-3.8,0-6.8,1-9,2.9c-2.1,1.9-3.2,4.4-3.2,7.4
			c0,1.6,0.3,3.2,1,4.7c0.6,1.5,1.9,3.3,3.7,5.3c1.8,2,4.4,4.5,7.7,7.6l59,54.7l-13.6,15.8l-65.1-60.5c-3.7-3.4-6.7-6.6-9-9.6
			c-2.2-3-3.9-5.9-4.9-8.8c-1-2.9-1.5-5.9-1.5-9c0-5.4,1.4-10.2,4.3-14.4c2.9-4.2,6.9-7.4,12.2-9.7c5.2-2.3,11.4-3.4,18.4-3.4
			c6.5,0,12.1,1,16.9,3.1c4.7,2.1,8.5,5,11.2,8.9s4.1,8.4,4.1,13.8c0,4.7-1.2,9-3.5,12.9c-2.3,3.9-6,7.5-11,11
			c-5,3.4-11.4,6.9-19.4,10.4c-5.4,2.5-9.7,4.8-12.9,7.1c-3.1,2.3-5.4,4.6-6.8,7c-1.4,2.3-2.1,5-2.1,7.8c0,2.7,0.8,5.1,2.5,7.2
			c1.7,2.1,4,3.8,7,5c3,1.2,6.5,1.8,10.6,1.8c6.5,0,12.5-1.5,17.9-4.6c5.4-3,10.1-7.6,13.8-13.6c3.8-6,6.5-13.4,8.1-22l20,6.2
			c-2.2,10.9-6.2,20.3-12,28.3s-12.9,14.2-21.3,18.6C2573.6,255.7,2564.2,257.9,2553.7,257.9z"/>
		<path class="st0" d="M2695.5,255.9v-90.9h-35.8v-21.1h97.6v21.1h-35.8v90.9H2695.5z"/>
		<path class="st0" d="M2789.2,235.1h61v20.8h-86.7v-112h84.6v20.8h-58.9V235.1z M2787.3,189.1h53.9v20.2h-53.9V189.1z"/>
		<path class="st0" d="M2916.3,257.9c-8.6,0-16.7-1.4-24.1-4.2c-7.4-2.8-13.8-6.9-19.3-12.1c-5.4-5.2-9.7-11.4-12.7-18.4
			s-4.6-14.8-4.6-23.2c0-8.4,1.5-16.2,4.6-23.2s7.3-13.2,12.8-18.4c5.5-5.2,11.9-9.3,19.3-12.1c7.4-2.8,15.4-4.2,24.2-4.2
			c9.7,0,18.5,1.7,26.3,5c7.8,3.4,14.4,8.3,19.8,14.8l-16.6,15.4c-3.8-4.4-8.1-7.7-12.8-9.8c-4.7-2.2-9.8-3.3-15.4-3.3
			c-5.2,0-10,0.9-14.4,2.6c-4.4,1.7-8.2,4.2-11.4,7.4c-3.2,3.2-5.7,7-7.4,11.4c-1.8,4.4-2.6,9.2-2.6,14.6c0,5.3,0.9,10.2,2.6,14.6
			c1.8,4.4,4.2,8.2,7.4,11.4c3.2,3.2,7,5.7,11.4,7.4c4.4,1.7,9.2,2.6,14.4,2.6c5.5,0,10.7-1.1,15.4-3.3c4.7-2.2,9-5.5,12.8-10
			l16.6,15.4c-5.3,6.5-11.9,11.5-19.8,14.9C2935,256.2,2926.2,257.9,2916.3,257.9z"/>
		<path class="st0" d="M2998.3,255.9h-25.9v-112h25.9V255.9z M3051.1,210h-54.7v-21.9h54.7V210z M3049.1,143.9h25.9v112h-25.9V143.9
			z"/>
		<path class="st0" d="M3094.9,255.9v-112h21.4l66.1,80.6H3172v-80.6h25.6v112h-21.3l-66.2-80.6h10.4v80.6H3094.9z"/>
		<path class="st0" d="M3217.4,255.9v-112h25.9v112H3217.4z"/>
		<path class="st0" d="M3317,257.9c-8.6,0-16.7-1.4-24.1-4.2c-7.4-2.8-13.8-6.9-19.3-12.1c-5.4-5.2-9.7-11.4-12.7-18.4
			s-4.6-14.8-4.6-23.2c0-8.4,1.5-16.2,4.6-23.2s7.3-13.2,12.8-18.4c5.5-5.2,11.9-9.3,19.3-12.1c7.4-2.8,15.4-4.2,24.2-4.2
			c9.7,0,18.5,1.7,26.3,5c7.8,3.4,14.4,8.3,19.8,14.8l-16.6,15.4c-3.8-4.4-8.1-7.7-12.8-9.8c-4.7-2.2-9.8-3.3-15.4-3.3
			c-5.2,0-10,0.9-14.4,2.6c-4.4,1.7-8.2,4.2-11.4,7.4c-3.2,3.2-5.7,7-7.4,11.4c-1.8,4.4-2.6,9.2-2.6,14.6c0,5.3,0.9,10.2,2.6,14.6
			c1.8,4.4,4.2,8.2,7.4,11.4c3.2,3.2,7,5.7,11.4,7.4c4.4,1.7,9.2,2.6,14.4,2.6c5.5,0,10.7-1.1,15.4-3.3c4.7-2.2,9-5.5,12.8-10
			l16.6,15.4c-5.3,6.5-11.9,11.5-19.8,14.9C3335.6,256.2,3326.8,257.9,3317,257.9z"/>
		<path class="st0" d="M3360.7,255.9l49.9-112h25.6l50.1,112h-27.2l-41-98.9h10.2l-41.1,98.9H3360.7z M3385.6,231.9l6.9-19.7h57.6
			l7,19.7H3385.6z"/>
		<path class="st0" d="M3491.5,255.9v-112h25.9v90.9h56.2v21.1H3491.5z"/>
		<path class="st0" d="M3648.6,255.9v-90.9h-35.8v-21.1h97.6v21.1h-35.8v90.9H3648.6z"/>
		<path class="st0" d="M3716.6,255.9v-112h48.5c10,0,18.7,1.6,25.9,4.9c7.3,3.3,12.9,7.9,16.8,14c3.9,6.1,5.9,13.3,5.9,21.8
			c0,8.3-2,15.5-5.9,21.5c-3.9,6-9.5,10.6-16.8,13.8c-7.3,3.2-15.9,4.8-25.9,4.8H3731l11.5-11.4v42.6H3716.6z M3742.5,216.3
			l-11.5-12.2h32.6c8,0,14-1.7,17.9-5.2c3.9-3.5,5.9-8.2,5.9-14.3c0-6.2-2-11-5.9-14.4c-3.9-3.4-9.9-5.1-17.9-5.1H3731l11.5-12.3
			V216.3z M3787.8,255.9l-28-40.6h27.7l28.3,40.6H3787.8z"/>
		<path class="st0" d="M3817.4,255.9l49.9-112h25.6l50.1,112h-27.2l-41-98.9h10.2l-41.1,98.9H3817.4z M3842.3,231.9l6.9-19.7h57.6
			l7,19.7H3842.3z"/>
		<path class="st0" d="M3948.1,255.9v-112h25.9v112H3948.1z"/>
		<path class="st0" d="M3993.8,255.9v-112h21.4l66.1,80.6h-10.4v-80.6h25.6v112h-21.3l-66.2-80.6h10.4v80.6H3993.8z"/>
		<path class="st0" d="M4116.3,255.9v-112h25.9v112H4116.3z"/>
		<path class="st0" d="M4162,255.9v-112h21.4l66.1,80.6h-10.4v-80.6h25.6v112h-21.3l-66.2-80.6h10.4v80.6H4162z"/>
		<path class="st0" d="M4338.9,257.9c-8.9,0-17-1.4-24.4-4.2c-7.4-2.8-13.9-6.9-19.4-12.1c-5.5-5.2-9.8-11.4-12.8-18.4
			s-4.6-14.8-4.6-23.2c0-8.4,1.5-16.2,4.6-23.2s7.3-13.2,12.9-18.4c5.5-5.2,12.1-9.3,19.5-12.1c7.5-2.8,15.7-4.2,24.6-4.2
			c9.9,0,18.9,1.7,26.8,5c7.9,3.3,14.6,8.1,20.1,14.4l-16.6,15.4c-4.1-4.3-8.5-7.4-13.3-9.5c-4.8-2.1-10-3.1-15.7-3.1
			c-5.4,0-10.4,0.9-14.9,2.6c-4.5,1.7-8.3,4.2-11.6,7.4c-3.3,3.2-5.8,7-7.5,11.4c-1.8,4.4-2.6,9.2-2.6,14.6c0,5.2,0.9,10,2.6,14.4
			c1.8,4.4,4.3,8.2,7.5,11.4c3.3,3.3,7.1,5.7,11.5,7.4c4.4,1.7,9.3,2.6,14.6,2.6c5.1,0,10.1-0.8,15-2.5c4.9-1.7,9.6-4.5,14.2-8.4
			l14.7,18.7c-6.1,4.6-13.1,8.1-21.2,10.6C4355,256.6,4346.9,257.9,4338.9,257.9z M4360.5,240.3v-42.1h23.7v45.4L4360.5,240.3z"/>
		<path class="st0" d="M4499.1,257.9c-8.6,0-16.7-1.4-24.1-4.2c-7.4-2.8-13.8-6.9-19.3-12.1c-5.4-5.2-9.7-11.4-12.7-18.4
			s-4.6-14.8-4.6-23.2c0-8.4,1.5-16.2,4.6-23.2s7.3-13.2,12.8-18.4c5.5-5.2,11.9-9.3,19.3-12.1c7.4-2.8,15.4-4.2,24.2-4.2
			c9.7,0,18.5,1.7,26.3,5c7.8,3.4,14.4,8.3,19.8,14.8l-16.6,15.4c-3.8-4.4-8.1-7.7-12.8-9.8c-4.7-2.2-9.8-3.3-15.4-3.3
			c-5.2,0-10,0.9-14.4,2.6c-4.4,1.7-8.2,4.2-11.4,7.4c-3.2,3.2-5.7,7-7.4,11.4c-1.8,4.4-2.6,9.2-2.6,14.6c0,5.3,0.9,10.2,2.6,14.6
			c1.8,4.4,4.2,8.2,7.4,11.4c3.2,3.2,7,5.7,11.4,7.4c4.4,1.7,9.2,2.6,14.4,2.6c5.5,0,10.7-1.1,15.4-3.3c4.7-2.2,9-5.5,12.8-10
			l16.6,15.4c-5.3,6.5-11.9,11.5-19.8,14.9C4517.7,256.2,4508.9,257.9,4499.1,257.9z"/>
		<path class="st0" d="M4607.3,257.9c-8.9,0-17-1.4-24.6-4.3c-7.5-2.9-14-6.9-19.5-12.2c-5.5-5.2-9.8-11.4-12.8-18.4
			s-4.6-14.7-4.6-23s1.5-16,4.6-23s7.3-13.2,12.9-18.4c5.5-5.2,12.1-9.3,19.5-12.2c7.5-2.9,15.6-4.3,24.3-4.3c8.9,0,17,1.4,24.4,4.3
			c7.4,2.9,13.9,6.9,19.4,12.2c5.5,5.2,9.8,11.3,12.9,18.3c3.1,7,4.6,14.7,4.6,23.1c0,8.3-1.5,16-4.6,23.1
			c-3.1,7.1-7.4,13.2-12.9,18.4c-5.5,5.2-11.9,9.2-19.4,12.1C4624.1,256.4,4616,257.9,4607.3,257.9z M4607.1,235.8
			c5,0,9.6-0.9,13.8-2.6c4.2-1.7,7.9-4.2,11.1-7.4c3.2-3.2,5.7-7,7.4-11.4c1.8-4.4,2.6-9.2,2.6-14.6c0-5.3-0.9-10.2-2.6-14.6
			c-1.8-4.4-4.2-8.2-7.4-11.4c-3.1-3.2-6.9-5.7-11.1-7.4c-4.3-1.7-8.9-2.6-13.9-2.6c-5,0-9.6,0.9-13.8,2.6
			c-4.2,1.7-7.9,4.2-11.1,7.4c-3.2,3.2-5.7,7-7.4,11.4c-1.8,4.4-2.6,9.2-2.6,14.6c0,5.2,0.9,10.1,2.6,14.5c1.8,4.4,4.2,8.2,7.4,11.4
			c3.1,3.2,6.9,5.7,11.1,7.4C4597.5,234.9,4602.1,235.8,4607.1,235.8z"/>
		<path class="st0" d="M4681.2,255.9v-112h21.4l47.7,79H4739l46.9-79h21.3l0.3,112h-24.3l-0.2-74.7h4.5l-37.4,62.9h-11.7l-38.2-62.9
			h5.4v74.7H4681.2z"/>
		<path class="st0" d="M4827.3,255.9v-112h21.4l47.7,79h-11.4l46.9-79h21.3l0.3,112h-24.3l-0.2-74.7h4.5l-37.4,62.9h-11.7
			l-38.2-62.9h5.4v74.7H4827.3z"/>
		<path class="st0" d="M4973.3,255.9v-112h25.9v112H4973.3z"/>
		<path class="st0" d="M5057.1,257.9c-9,0-17.5-1.2-25.8-3.6c-8.2-2.4-14.8-5.5-19.8-9.4l8.8-19.5c4.8,3.4,10.5,6.2,17,8.4
			c6.6,2.2,13.2,3.3,19.9,3.3c5.1,0,9.3-0.5,12.4-1.5c3.1-1,5.5-2.4,7-4.2c1.5-1.8,2.2-3.9,2.2-6.2c0-3-1.2-5.4-3.5-7.1
			c-2.3-1.8-5.4-3.2-9.3-4.3c-3.8-1.1-8.1-2.2-12.7-3.2c-4.6-1-9.3-2.3-13.9-3.8c-4.6-1.5-8.9-3.4-12.7-5.8c-3.8-2.3-7-5.4-9.4-9.3
			c-2.4-3.8-3.6-8.7-3.6-14.7c0-6.4,1.7-12.2,5.2-17.5c3.5-5.3,8.7-9.5,15.7-12.6c7-3.1,15.8-4.7,26.3-4.7c7,0,14,0.8,20.8,2.5
			c6.8,1.7,12.9,4.1,18.1,7.4l-8,19.7c-5.2-3-10.5-5.2-15.7-6.6c-5.2-1.4-10.3-2.2-15.4-2.2c-5,0-9.1,0.6-12.3,1.8
			c-3.2,1.2-5.5,2.7-6.9,4.6c-1.4,1.9-2.1,4-2.1,6.5c0,2.9,1.2,5.2,3.5,7c2.3,1.8,5.4,3.2,9.3,4.2c3.8,1.1,8.1,2.1,12.7,3.2
			c4.6,1.1,9.3,2.3,13.9,3.7c4.6,1.4,8.9,3.3,12.7,5.6c3.8,2.3,7,5.4,9.4,9.3c2.4,3.8,3.6,8.7,3.6,14.6c0,6.3-1.8,12.1-5.3,17.3
			c-3.5,5.2-8.8,9.4-15.8,12.6C5076.6,256.3,5067.8,257.9,5057.1,257.9z"/>
		<path class="st0" d="M5153.6,257.9c-9,0-17.5-1.2-25.8-3.6c-8.2-2.4-14.8-5.5-19.8-9.4l8.8-19.5c4.8,3.4,10.5,6.2,17,8.4
			c6.6,2.2,13.2,3.3,19.9,3.3c5.1,0,9.3-0.5,12.4-1.5c3.1-1,5.5-2.4,7-4.2c1.5-1.8,2.2-3.9,2.2-6.2c0-3-1.2-5.4-3.5-7.1
			c-2.3-1.8-5.4-3.2-9.3-4.3c-3.8-1.1-8.1-2.2-12.7-3.2c-4.6-1-9.3-2.3-13.9-3.8c-4.6-1.5-8.9-3.4-12.7-5.8c-3.8-2.3-7-5.4-9.4-9.3
			c-2.4-3.8-3.6-8.7-3.6-14.7c0-6.4,1.7-12.2,5.2-17.5c3.5-5.3,8.7-9.5,15.7-12.6c7-3.1,15.8-4.7,26.3-4.7c7,0,14,0.8,20.8,2.5
			c6.8,1.7,12.9,4.1,18.1,7.4l-8,19.7c-5.2-3-10.5-5.2-15.7-6.6c-5.2-1.4-10.3-2.2-15.4-2.2c-5,0-9.1,0.6-12.3,1.8
			c-3.2,1.2-5.5,2.7-6.9,4.6c-1.4,1.9-2.1,4-2.1,6.5c0,2.9,1.2,5.2,3.5,7c2.3,1.8,5.4,3.2,9.3,4.2c3.8,1.1,8.1,2.1,12.7,3.2
			c4.6,1.1,9.3,2.3,13.9,3.7c4.6,1.4,8.9,3.3,12.7,5.6c3.8,2.3,7,5.4,9.4,9.3c2.4,3.8,3.6,8.7,3.6,14.6c0,6.3-1.8,12.1-5.3,17.3
			c-3.5,5.2-8.8,9.4-15.8,12.6C5173.1,256.3,5164.3,257.9,5153.6,257.9z"/>
		<path class="st0" d="M5213.4,255.9v-112h25.9v112H5213.4z"/>
		<path class="st0" d="M5313.8,257.9c-8.9,0-17-1.4-24.6-4.3c-7.5-2.9-14-6.9-19.5-12.2c-5.5-5.2-9.8-11.4-12.8-18.4
			s-4.6-14.7-4.6-23s1.5-16,4.6-23s7.3-13.2,12.9-18.4c5.5-5.2,12.1-9.3,19.5-12.2c7.5-2.9,15.6-4.3,24.3-4.3c8.9,0,17,1.4,24.4,4.3
			c7.4,2.9,13.9,6.9,19.4,12.2c5.5,5.2,9.8,11.3,12.9,18.3c3.1,7,4.6,14.7,4.6,23.1c0,8.3-1.5,16-4.6,23.1
			c-3.1,7.1-7.4,13.2-12.9,18.4c-5.5,5.2-11.9,9.2-19.4,12.1C5330.6,256.4,5322.5,257.9,5313.8,257.9z M5313.6,235.8
			c5,0,9.6-0.9,13.8-2.6c4.2-1.7,7.9-4.2,11.1-7.4c3.2-3.2,5.7-7,7.4-11.4c1.8-4.4,2.6-9.2,2.6-14.6c0-5.3-0.9-10.2-2.6-14.6
			c-1.8-4.4-4.2-8.2-7.4-11.4c-3.1-3.2-6.9-5.7-11.1-7.4c-4.3-1.7-8.9-2.6-13.9-2.6c-5,0-9.6,0.9-13.8,2.6
			c-4.2,1.7-7.9,4.2-11.1,7.4c-3.2,3.2-5.7,7-7.4,11.4c-1.8,4.4-2.6,9.2-2.6,14.6c0,5.2,0.9,10.1,2.6,14.5c1.8,4.4,4.2,8.2,7.4,11.4
			c3.1,3.2,6.9,5.7,11.1,7.4C5304,234.9,5308.6,235.8,5313.6,235.8z"/>
		<path class="st0" d="M5387.8,255.9v-112h21.4l66.1,80.6h-10.4v-80.6h25.6v112h-21.3l-66.2-80.6h10.4v80.6H5387.8z"/>
	</g>
	<line class="st3" x1="551" y1="303.6" x2="1951.2" y2="303.6"/>
	<g>
		<path class="st4" d="M606.1,415.6c2,0,3.8-0.1,5.5-0.3c1.7-0.2,3.2-0.5,4.7-0.8c1.5-0.4,2.9-0.8,4.2-1.4c1.3-0.5,2.6-1.1,3.9-1.8
			V395H613c-0.7,0-1.2-0.2-1.6-0.6c-0.4-0.4-0.6-0.8-0.6-1.4v-5.7h22.7v28.3c-1.9,1.3-3.8,2.5-5.8,3.5c-2,1-4.2,1.8-6.4,2.5
			c-2.3,0.7-4.7,1.2-7.3,1.5c-2.6,0.3-5.4,0.5-8.5,0.5c-5.4,0-10.3-0.9-14.7-2.8c-4.5-1.8-8.3-4.4-11.5-7.7
			c-3.2-3.3-5.7-7.3-7.5-11.9c-1.8-4.6-2.7-9.7-2.7-15.3c0-5.6,0.9-10.8,2.7-15.4c1.8-4.6,4.3-8.6,7.6-11.9
			c3.3-3.3,7.2-5.9,11.9-7.7c4.7-1.8,9.9-2.7,15.6-2.7c2.9,0,5.6,0.2,8.1,0.6c2.5,0.4,4.8,1,7,1.9c2.1,0.8,4.1,1.8,5.9,2.9
			c1.8,1.2,3.5,2.4,5.1,3.9l-2.8,4.5c-0.6,0.9-1.3,1.4-2.3,1.4c-0.5,0-1.2-0.2-1.8-0.6c-0.9-0.5-1.8-1.1-2.9-1.8
			c-1.1-0.7-2.4-1.3-3.9-2c-1.5-0.6-3.3-1.2-5.4-1.6c-2.1-0.4-4.5-0.7-7.4-0.7c-4.2,0-7.9,0.7-11.3,2c-3.4,1.4-6.2,3.3-8.6,5.8
			s-4.2,5.6-5.5,9.2c-1.3,3.6-1.9,7.6-1.9,12.1c0,4.7,0.7,8.8,2,12.5c1.3,3.7,3.2,6.8,5.6,9.3c2.4,2.5,5.3,4.5,8.5,5.8
			S602.1,415.6,606.1,415.6z"/>
		<path class="st4" d="M715.1,386c0,5.5-0.9,10.6-2.6,15.2c-1.8,4.6-4.2,8.6-7.4,11.9s-7,5.9-11.5,7.8c-4.5,1.8-9.4,2.8-14.9,2.8
			c-5.4,0-10.4-0.9-14.8-2.8c-4.5-1.8-8.3-4.4-11.5-7.8s-5.7-7.3-7.4-11.9c-1.8-4.6-2.6-9.7-2.6-15.2c0-5.5,0.9-10.6,2.6-15.2
			c1.8-4.6,4.2-8.6,7.4-11.9c3.2-3.3,7-5.9,11.5-7.8c4.5-1.9,9.4-2.8,14.8-2.8c5.4,0,10.4,0.9,14.9,2.8c4.5,1.9,8.3,4.5,11.5,7.8
			c3.2,3.3,5.7,7.3,7.4,11.9C714.2,375.4,715.1,380.5,715.1,386z M704.8,386c0-4.5-0.6-8.6-1.9-12.2c-1.2-3.6-3-6.7-5.3-9.1
			s-5-4.4-8.2-5.7c-3.2-1.3-6.8-2-10.8-2c-3.9,0-7.5,0.7-10.8,2c-3.2,1.3-6,3.3-8.3,5.7c-2.3,2.5-4,5.5-5.3,9.1
			c-1.2,3.6-1.9,7.7-1.9,12.2s0.6,8.6,1.9,12.2c1.2,3.6,3,6.6,5.3,9.1c2.3,2.5,5,4.4,8.3,5.7c3.2,1.3,6.8,2,10.8,2
			c4,0,7.6-0.7,10.8-2c3.2-1.3,6-3.2,8.2-5.7c2.3-2.5,4-5.5,5.3-9.1C704.2,394.6,704.8,390.6,704.8,386z"/>
		<path class="st4" d="M714.8,349.1h8c0.9,0,1.6,0.2,2.2,0.7c0.5,0.4,1,1,1.2,1.7l20.9,52.1c0.5,1.2,0.9,2.4,1.3,3.8
			c0.4,1.4,0.8,2.8,1.2,4.3c0.3-1.5,0.6-2.9,1-4.3c0.4-1.4,0.8-2.6,1.3-3.8l20.8-52.1c0.2-0.6,0.7-1.1,1.2-1.6
			c0.6-0.5,1.3-0.7,2.2-0.7h8l-30.1,73.8h-9L714.8,349.1z"/>
		<path class="st4" d="M836.9,349.1v8.1h-35.4v24.5h28.7v7.8h-28.7v25.2h35.4v8.1h-45.5v-73.8H836.9z"/>
		<path class="st4" d="M857.3,392.1v30.8h-9.9v-73.8h20.9c4.7,0,8.7,0.5,12.1,1.4c3.4,0.9,6.2,2.3,8.4,4.1s3.9,3.9,4.9,6.5
			c1.1,2.5,1.6,5.3,1.6,8.5c0,2.6-0.4,5-1.2,7.3c-0.8,2.3-2,4.3-3.6,6.1c-1.6,1.8-3.5,3.3-5.7,4.6c-2.2,1.3-4.8,2.2-7.6,2.9
			c1.2,0.7,2.3,1.8,3.3,3.1l21.5,29.3H893c-1.8,0-3.2-0.7-4-2.1l-19.2-26.4c-0.6-0.8-1.2-1.4-1.9-1.8c-0.7-0.4-1.7-0.5-3.1-0.5
			H857.3z M857.3,384.8h10.5c2.9,0,5.5-0.4,7.7-1.1c2.2-0.7,4.1-1.7,5.6-3s2.6-2.8,3.4-4.6c0.8-1.8,1.1-3.8,1.1-5.9
			c0-4.4-1.5-7.7-4.4-9.9c-2.9-2.2-7.2-3.3-13-3.3h-10.9V384.8z"/>
		<path class="st4" d="M917.1,349.4c0.4,0.2,0.9,0.7,1.5,1.4l42.7,55.6c-0.1-0.9-0.2-1.8-0.2-2.6c0-0.8-0.1-1.7-0.1-2.4v-52.3h8.8
			v73.8h-5c-0.8,0-1.5-0.1-2-0.4c-0.5-0.3-1.1-0.7-1.6-1.4l-42.7-55.6c0.1,0.9,0.1,1.7,0.2,2.5c0,0.8,0.1,1.6,0.1,2.3v52.6h-8.8
			v-73.8h5.1C916,349.1,916.6,349.2,917.1,349.4z"/>
		<path class="st4" d="M1023.1,398.8c0.4,0.9,0.7,1.8,1.1,2.8c0.3-1,0.7-1.9,1.1-2.8c0.4-0.9,0.8-1.8,1.3-2.7l25-45.4
			c0.4-0.8,0.9-1.3,1.4-1.4c0.5-0.2,1.2-0.3,2.1-0.3h7.4v73.8h-8.8v-54.2c0-0.7,0-1.5,0.1-2.3c0-0.8,0.1-1.7,0.2-2.5l-25.3,46.1
			c-0.9,1.5-2.1,2.3-3.6,2.3h-1.4c-1.5,0-2.7-0.8-3.6-2.3L994,363.7c0.1,0.9,0.2,1.8,0.2,2.6c0.1,0.9,0.1,1.6,0.1,2.4v54.2h-8.8
			v-73.8h7.4c0.9,0,1.6,0.1,2.1,0.3c0.5,0.2,0.9,0.7,1.4,1.4l25.5,45.4C1022.3,397,1022.8,397.9,1023.1,398.8z"/>
		<path class="st4" d="M1123.5,349.1v8.1h-35.4v24.5h28.7v7.8h-28.7v25.2h35.4v8.1h-45.5v-73.8H1123.5z"/>
		<path class="st4" d="M1140.6,349.4c0.4,0.2,0.9,0.7,1.5,1.4l42.7,55.6c-0.1-0.9-0.2-1.8-0.2-2.6c0-0.8-0.1-1.7-0.1-2.4v-52.3h8.8
			v73.8h-5c-0.8,0-1.5-0.1-2-0.4c-0.5-0.3-1.1-0.7-1.6-1.4l-42.7-55.6c0.1,0.9,0.1,1.7,0.2,2.5c0,0.8,0.1,1.6,0.1,2.3v52.6h-8.8
			v-73.8h5.2C1139.6,349.1,1140.2,349.2,1140.6,349.4z"/>
		<path class="st4" d="M1259.1,349.1v8.4h-23.8v65.4h-10v-65.4h-23.9v-8.4H1259.1z"/>
		<path class="st4" d="M1358,386c0,5.5-0.9,10.6-2.6,15.2c-1.8,4.6-4.2,8.6-7.4,11.9c-3.2,3.3-7,5.9-11.5,7.8
			c-4.5,1.8-9.4,2.8-14.9,2.8c-5.4,0-10.4-0.9-14.8-2.8c-4.5-1.8-8.3-4.4-11.5-7.8c-3.2-3.3-5.7-7.3-7.4-11.9
			c-1.8-4.6-2.6-9.7-2.6-15.2c0-5.5,0.9-10.6,2.6-15.2c1.8-4.6,4.2-8.6,7.4-11.9c3.2-3.3,7-5.9,11.5-7.8c4.5-1.9,9.4-2.8,14.8-2.8
			c5.4,0,10.4,0.9,14.9,2.8c4.5,1.9,8.3,4.5,11.5,7.8c3.2,3.3,5.7,7.3,7.4,11.9C1357.2,375.4,1358,380.5,1358,386z M1347.8,386
			c0-4.5-0.6-8.6-1.9-12.2c-1.2-3.6-3-6.7-5.3-9.1c-2.3-2.5-5-4.4-8.2-5.7c-3.2-1.3-6.8-2-10.8-2c-3.9,0-7.5,0.7-10.8,2
			c-3.2,1.3-6,3.3-8.3,5.7c-2.3,2.5-4,5.5-5.3,9.1c-1.2,3.6-1.9,7.7-1.9,12.2s0.6,8.6,1.9,12.2c1.2,3.6,3,6.6,5.3,9.1
			c2.3,2.5,5,4.4,8.3,5.7c3.2,1.3,6.8,2,10.8,2c4,0,7.6-0.7,10.8-2c3.2-1.3,6-3.2,8.2-5.7c2.3-2.5,4-5.5,5.3-9.1
			S1347.8,390.6,1347.8,386z"/>
		<path class="st4" d="M1415,349.1v8.1h-35.4V383h30.3v8.1h-30.3v31.7h-10v-73.8H1415z"/>
		<path class="st4" d="M1458.7,395.3v27.6h-9.9v-73.8h21.8c4.7,0,8.7,0.5,12.2,1.6c3.5,1.1,6.3,2.6,8.6,4.6c2.3,2,4,4.4,5.1,7.2
			c1.1,2.8,1.7,6,1.7,9.4c0,3.4-0.6,6.6-1.8,9.4c-1.2,2.8-3,5.3-5.3,7.4c-2.3,2.1-5.2,3.7-8.6,4.8c-3.4,1.2-7.4,1.7-11.8,1.7H1458.7
			z M1458.7,387.4h11.8c2.8,0,5.4-0.4,7.5-1.1c2.2-0.8,4-1.8,5.5-3.2c1.5-1.4,2.6-3,3.3-4.9c0.8-1.9,1.1-4,1.1-6.2
			c0-4.7-1.5-8.4-4.4-11c-2.9-2.6-7.3-4-13.2-4h-11.8V387.4z"/>
		<path class="st4" d="M1562.7,422.9h-7.7c-0.9,0-1.6-0.2-2.2-0.7c-0.5-0.4-1-1-1.2-1.7l-6.9-17.8h-33.1l-6.9,17.8
			c-0.2,0.6-0.7,1.2-1.2,1.6c-0.6,0.5-1.3,0.7-2.2,0.7h-7.7l29.5-73.8h10.1L1562.7,422.9z M1514.3,395.5h27.6l-11.6-30
			c-0.8-1.9-1.5-4.2-2.2-7c-0.4,1.4-0.7,2.7-1.1,3.9c-0.4,1.2-0.7,2.2-1.1,3.1L1514.3,395.5z"/>
		<path class="st4" d="M1580.4,381.4h3.8c1.3,0,2.3-0.2,3.1-0.5c0.8-0.3,1.5-0.9,2.2-1.7l24.6-27.8c0.8-0.9,1.5-1.5,2.2-1.8
			c0.7-0.4,1.6-0.5,2.7-0.5h8.5l-28.1,31.8c-0.7,0.8-1.4,1.5-2,2c-0.6,0.5-1.3,1-2,1.3c1,0.3,1.8,0.8,2.5,1.4
			c0.7,0.6,1.5,1.4,2.3,2.3l29.4,35h-8.7c-0.7,0-1.2-0.1-1.6-0.2c-0.4-0.1-0.8-0.2-1.2-0.4c-0.3-0.2-0.6-0.4-0.9-0.7
			c-0.3-0.3-0.5-0.6-0.8-0.9l-25.5-29.3c-0.4-0.4-0.7-0.8-1.1-1.1c-0.3-0.3-0.7-0.5-1.1-0.7c-0.4-0.2-0.9-0.4-1.5-0.4
			c-0.6-0.1-1.3-0.1-2.1-0.1h-4.5v33.8h-9.9v-73.8h9.9V381.4z"/>
		<path class="st4" d="M1648,422.9h-10v-73.8h10V422.9z"/>
		<path class="st4" d="M1702.3,360.6c-0.3,0.5-0.6,0.9-1,1.2c-0.3,0.3-0.8,0.4-1.3,0.4c-0.6,0-1.3-0.3-2-0.9
			c-0.8-0.6-1.8-1.2-2.9-1.9c-1.2-0.7-2.6-1.3-4.3-1.9c-1.7-0.6-3.7-0.9-6.1-0.9c-2.2,0-4.2,0.3-5.9,0.9c-1.7,0.6-3.2,1.4-4.3,2.4
			c-1.2,1-2,2.2-2.6,3.6c-0.6,1.4-0.9,2.9-0.9,4.5c0,2.1,0.5,3.8,1.5,5.1c1,1.4,2.4,2.5,4,3.5c1.7,1,3.6,1.8,5.7,2.5
			c2.1,0.7,4.3,1.4,6.5,2.2c2.2,0.8,4.4,1.6,6.5,2.5c2.1,0.9,4,2.1,5.7,3.6c1.7,1.4,3,3.2,4,5.3c1,2.1,1.5,4.7,1.5,7.7
			c0,3.2-0.5,6.3-1.6,9.1c-1.1,2.8-2.7,5.3-4.8,7.4c-2.1,2.1-4.7,3.7-7.8,4.9c-3.1,1.2-6.6,1.8-10.5,1.8c-4.8,0-9.1-0.9-13.1-2.6
			c-3.9-1.7-7.3-4.1-10.1-7l2.9-4.7c0.3-0.4,0.6-0.7,1-1c0.4-0.3,0.8-0.4,1.3-0.4c0.7,0,1.5,0.4,2.5,1.2s2.1,1.6,3.5,2.5
			c1.4,0.9,3.1,1.8,5,2.5c2,0.8,4.4,1.2,7.2,1.2c2.4,0,4.5-0.3,6.3-1c1.9-0.7,3.4-1.6,4.7-2.8c1.3-1.2,2.3-2.6,3-4.2
			c0.7-1.6,1-3.5,1-5.5c0-2.2-0.5-4.1-1.5-5.5c-1-1.4-2.3-2.6-4-3.6s-3.5-1.8-5.6-2.4c-2.1-0.7-4.3-1.4-6.5-2.1
			c-2.2-0.7-4.4-1.5-6.5-2.4c-2.1-0.9-4-2.1-5.6-3.6c-1.6-1.5-3-3.3-4-5.5c-1-2.2-1.5-5-1.5-8.2c0-2.6,0.5-5.1,1.5-7.6
			c1-2.4,2.5-4.6,4.4-6.5c1.9-1.9,4.3-3.4,7.1-4.5c2.8-1.1,6.1-1.7,9.8-1.7c4.1,0,7.9,0.7,11.3,2c3.4,1.3,6.4,3.2,8.9,5.7
			L1702.3,360.6z"/>
		<path class="st4" d="M1768.8,349.1v8.4h-23.8v65.4h-10v-65.4H1711v-8.4H1768.8z"/>
		<path class="st4" d="M1829,422.9h-7.7c-0.9,0-1.6-0.2-2.2-0.7c-0.5-0.4-1-1-1.2-1.7l-6.9-17.8h-33.1l-6.9,17.8
			c-0.2,0.6-0.7,1.2-1.2,1.6c-0.6,0.5-1.3,0.7-2.2,0.7h-7.7l29.5-73.8h10.1L1829,422.9z M1780.6,395.5h27.6l-11.6-30
			c-0.8-1.9-1.5-4.2-2.2-7c-0.4,1.4-0.7,2.7-1.1,3.9c-0.4,1.2-0.7,2.2-1.1,3.1L1780.6,395.5z"/>
		<path class="st4" d="M1843.5,349.4c0.4,0.2,0.9,0.7,1.5,1.4l42.7,55.6c-0.1-0.9-0.2-1.8-0.2-2.6c0-0.8-0.1-1.7-0.1-2.4v-52.3h8.8
			v73.8h-5c-0.8,0-1.5-0.1-2-0.4c-0.5-0.3-1.1-0.7-1.6-1.4l-42.7-55.6c0.1,0.9,0.1,1.7,0.2,2.5c0,0.8,0.1,1.6,0.1,2.3v52.6h-8.8
			v-73.8h5.2C1842.4,349.1,1843.1,349.2,1843.5,349.4z"/>
	</g>
</g>
<g id="Logo">
	<line class="st5" x1="6707.2" y1="472.6" x2="6707.2" y2="48.7"/>
</g>
</svg>
