<?xml version="1.0" encoding="utf-8"?>
<!-- Generator: Adobe Illustrator 27.9.0, SVG Export Plug-In . SVG Version: 6.00 Build 0)  -->
<svg version="1.1" id="Layer_1" xmlns="http://www.w3.org/2000/svg" xmlns:xlink="http://www.w3.org/1999/xlink" x="0px" y="0px"
	 viewBox="0 0 445.9 541.4" style="enable-background:new 0 0 445.9 541.4;" xml:space="preserve">
<style type="text/css">
	.st0{display:none;fill:none;stroke:#606060;stroke-width:5;stroke-linecap:round;stroke-miterlimit:10;}
	.st1{fill:#FFFFFF;}
</style>
<g id="Main_x5F_Text">
</g>
<line class="st0" x1="468.3" y1="424.9" x2="468.3" y2="1.1"/>
<g id="LOGO">
	<path class="st1" d="M190.5,388.6c-0.2-1.2-1.1-1.2-1.7-1.5c-1.8-0.9-3.7-1.6-5.5-2.5c-4.8-2.4-8.4-6.1-10.8-10.9
		c-3-6-4.5-12.5-6-19.3c1.4,0.1,2.5,0.1,3.7,0.3c6.1,1.1,11.1,4.1,15.1,8.8c4.2,5,7,10.8,9.3,16.9c1.1,2.8,2,5.6,2.8,8.4
		c0.4,1.2,0.9,1.8,2.3,1.9c4.9,0.4,9.8,0.8,14.6,1.3c1.5,0.1,3,0.2,4.4,0.5s2.9,0.7,4.4,1.2c2.8-1.3,6-1.5,9.1-1.8
		c4.7-0.4,9.3-0.9,14-1.2c1.3-0.1,1.9-0.6,2.3-1.9c1.9-6.4,4.2-12.7,7.5-18.5c3.1-5.5,7-10.3,12.8-13.3c3.3-1.7,7.1-2.6,10.4-2.4
		c0,0.2,0.1,0.5,0.1,0.8c-1.2,6.2-2.8,12.3-5.5,18c-2.7,5.5-6.8,9.4-12.4,12c-1.6,0.7-3.1,1.4-4.7,2.1c-0.4,0.2-0.7,0.4-1.1,0.7
		c0.6,0.9,1.3,0.4,1.9,0.3c7.3-1.5,14.4-3.5,21.4-5.9c1.6-0.5,3.2-1.2,4.9-1.8c0.3-2.7,0.5-5.4,0.8-8c0.6-5.5,1.3-11.1,3.2-16.4
		c2.8-8,8-13.4,16.1-15.9c0.5-0.2,1-0.2,1.4-0.3c0.2,0.2,0.3,0.3,0.3,0.4c0.2,6.6,0,13.2-1.9,19.6c-1.6,5.5-4.9,9.7-9.4,13.2
		c-1.2,1-2.5,1.9-3.6,2.9c-0.4,0.3-0.7,0.9-1.1,1.5c2.9-0.1,21.7-9.4,26.1-12.8c-0.2-3.3-0.4-6.7-0.6-10.1
		c-0.3-4.9-0.2-9.8,0.6-14.7c1.4-7.6,5.4-13.2,12.1-16.9c0.6-0.3,1.3-0.6,2.2-1c0.2,1,0.5,1.9,0.6,2.7c1.1,6.2,1.7,12.4,0.7,18.6
		c-0.9,5.5-3.1,10.4-7.2,14.2c-0.5,0.5-0.9,1.1-1.1,2c0.4-0.1,0.8-0.1,1.1-0.3c7.1-4.6,13.9-9.6,20.1-15.4c1.2-1.2,2.5-2.2,3.9-3.5
		c-5.6-6.9-7.3-14.8-6.6-23.3c0.6-7.4,3.2-14.1,7.6-20.4c1.1,0.6,1.8,1.5,2.5,2.5c2.7,3.8,3.8,8.2,4.1,12.8
		c0.5,6.5-0.4,12.9-2.1,19.2c-0.3,1.1-0.4,2.2-0.3,3.5c6.5-5.3,11.9-11.5,16.9-18.4c-7.7-7.1-10.3-16.2-9.9-26.2
		c0.3-7.5,2.6-13.6,6.3-18.1c1.8,1.3,3,3.1,4.1,4.9c2.5,4.2,3.7,8.7,4,13.5c0.4,5.9-0.2,11.7-1,17.5c-0.1,0.7-0.4,1.3-0.5,1.9
		c-0.1,0.5,0.1,1.1,0.3,1.7c6.4-7.7,11.7-15.9,16.2-24.9c-9.3-6.2-14.6-14.7-15.8-25.7c-0.6-5.7,0.3-12.7,3.1-17.1
		c3.7,2.2,6.6,5.2,8.8,8.9c2.9,5,4.1,10.5,4.5,16.2c0.3,4.1,0.3,8.2,0.5,12.2c0,0.8,0.1,1.5,0.2,2.5c2.8-2.6,12.3-25.7,12.6-30.3
		c-8.4-2.1-14.7-7.1-19.1-14.4c-4.1-6.8-5.8-14.2-5.7-22.2c2.4,0.4,4.4,1.3,6.3,2.4c5.6,3.3,9.5,8.2,12.7,13.7
		c2.7,4.6,4.7,9.6,6.1,14.8c0.2,0.8,0.1,1.9,1.7,1.8c2.5-9.3,4-18.8,5.1-28.8c-10.4-1.3-19.1-5.7-25.6-14.1
		c-4-5.2-6.9-12.4-7.7-18.8c1.9-0.5,3.7,0.1,5.4,0.6c6.3,2,11.2,6,15.6,10.8c4.3,4.7,7.8,9.9,10.6,15.6c0.7,1.5,0.7,1.5,2.2,2.2
		c0.8-9.6,0.2-19.1-0.6-28.9c-10.5,0.4-19.6-2.7-27.2-9.8c-4.8-4.4-8.1-9.7-10.5-15.9c5.4-1.1,10.3,0.1,15,2.5
		c4.7,2.5,8.7,5.9,12.6,9.5c2.5,2.3,4.9,4.8,7.3,7.2c0.5,0.5,1.1,1,2,1.9c0.1-2.6-0.5-4.6-0.8-6.6c-0.3-2.1-0.8-4.2-1.2-6.3
		c-0.4-2-0.9-4.1-1.4-6.1c-0.5-2.1-1.1-4.1-1.7-6.4c-11.7,1.4-22.1-1.1-31.1-8.8c-4-3.4-8.3-9.7-9-13.6c3.1-0.7,6.2-0.5,9.2,0
		c5.5,1,10.5,3.3,15,6.6c3.9,2.8,7.6,5.9,11.4,8.9c0.9,0.7,1.8,1.5,3.1,2.6c-0.2-1-0.2-1.5-0.4-2c-2.4-7.7-5.4-15.1-8.6-22.4
		c-0.7-1.6-0.8-1.6-2.8-1.1c-14.7,3.6-30.9-3.3-39.1-16.3c-0.1-0.2-0.2-0.4-0.4-0.8c0.5-0.2,1-0.5,1.5-0.7c4.5-1.5,9.1-1.4,13.6-0.2
		c5.5,1.4,10.5,4.2,15.4,6.9c1.8,1,3.6,2.1,5.4,3.1c0.4,0.2,0.9,0.4,1.7,0.8c-0.3-0.8-0.4-1.3-0.6-1.7c-3.6-7.2-7.8-14-12.4-20.6
		c-1-1.4-2.1-1.4-3.5-1c-4.8,1.3-9.7,2.2-14.7,2.4c-6.7,0.3-13.2-0.8-19-4.3c-2.5-1.5-4.7-3.4-6.7-5.7c0.3-0.3,0.6-0.5,0.9-0.6
		c5.1-2.2,10.3-3.7,15.9-4.2c6.8-0.5,13.1,1,18.7,5.1c0.8,0.6,1.5,1.6,2.9,1c-0.2-0.3-0.3-0.7-0.5-0.9c-5.3-6.7-10.9-13.2-16.7-19.4
		c-1.2-1.3-2.2-1.7-4-0.9c-5.8,2.4-11.8,3.4-18.1,2.9c-6.5-0.5-12-3-16.6-7.7c-0.3-0.4-0.6-0.8-1-1.3c10.3-5.4,20.8-6.7,32-3.5
		c-0.1-1.6-1.6-1.4-2.3-2.3c-0.5-0.7-1.4-1.2-2.2-1.7c-1-0.5-2.1-1.1-3.2-1.3c-4-0.9-8-2.1-11.5-4.4c-3-2-5.4-4.5-6.8-7.8
		c-0.6-1.4-1.6-2.6-2.2-4c-0.7-1.4-1.2-2.9-2-4.7c1.2,0,2-0.2,2.7,0c4.1,1,7.9,2.7,11.6,4.7c3.8,2.1,6.2,5.5,8.7,8.9
		c0.7,1,0.9,2.4,1.4,3.5c0.7,1.7,1.2,3.5,3.1,4.2c0.4,0.1,0.6,0.5,1.3,0.6c-0.2-0.4-0.4-0.9-0.7-1.3c-2.7-3.9-4.9-8.2-5.7-12.9
		c-0.7-3.9-0.5-7.8,0.7-11.9c3.5,2.4,6.7,4.9,9.7,7.7c7.9,7.4,10.7,16.7,10.1,27.2c-0.1,1.2,0.1,2.1,1.1,2.9
		c5.7,5.4,10.8,11.4,15.5,17.8c0.4,0.5,0.9,1,1.4,1.5c0.2-0.1,0.3-0.2,0.5-0.3c-0.2-0.8-0.5-1.6-0.7-2.4c-1.5-5.1-2.6-10.4-2.4-15.8
		c0.2-5.2,1.7-10.1,4.9-14.3c0.2-0.2,0.3-0.5,0.7-1c1.5,1.8,2.8,3.2,4,4.8c4.3,5.6,7.1,11.8,8.6,18.6c1.1,4.6,0.1,9.2-1.4,13.6
		c-1.1,3.4-2.4,6.7-3.7,10c-0.4,1.1-0.4,1.9,0.3,2.9c4.6,6.9,8.6,14,12.3,21.4c0.2,0.3,0.4,0.6,0.9,0.9c0-0.3,0.1-0.6,0-0.9
		c-1.5-5.2-2-10.6-2.5-16c-0.4-4.1-0.4-8,0.9-11.9c1.9-5.9,5.5-10.8,9.7-15.6c0.8,1.4,1.5,2.6,2.1,3.9c4,8,6,16.4,5.9,25.3
		c0,4.3-1,8.4-2.8,12.3c-2.2,4.5-4.6,9-7,13.4c-0.5,0.9-1.1,1.8-1.6,2.7c3.5,7.3,5.4,15,7.4,22.7c0.2,0,0.3,0,0.5,0
		c0.1-0.4,0.2-0.9,0.2-1.3c0-3.9,0.1-7.7,0-11.6c-0.1-2.5,0.5-4.8,1.4-7.1c2.6-6.3,7-11.1,13.2-14.7c0.6,2.2,1.3,4.3,1.7,6.3
		c1.5,6.5,1.9,13.1,0.9,19.7c-0.6,3.8-2.3,7.1-4.6,10c-3,3.8-6.2,7.4-9.3,11.1c-0.7,0.9-1,1.6-0.8,2.8c1.2,6.7,1.8,13.4,2.1,20.1
		c0,0.7,0.1,1.4,0.2,2.1c0.2,0,0.4,0,0.5,0c0.2-0.8,0.3-1.5,0.5-2.3c0.8-4.6,1.6-9.2,3.6-13.5c1.8-4,4.8-7,8.3-9.3
		c2.2-1.5,4.6-2.6,7.2-4.1c0.5,5.9,0.7,11.5-0.2,17.1c-0.9,5.6-3.3,10.5-7.3,14.5c-2.5,2.5-5.2,4.8-7.9,7.2c-1.2,1-2.5,1.9-3.7,2.9
		c-0.5,0.4-0.9,1-1,1.6c-0.3,8.5-1.5,16.8-3.2,25.2c-0.1,0.3,0,0.6,0.3,1c0.2-0.3,0.6-0.6,0.7-1c1.2-3,2.2-6.1,3.6-9.1
		c2.3-5.1,5.3-9.6,9.5-13.3c4.4-3.8,9.5-6,15.2-6.8c0.4-0.1,0.9,0,1.3,0.1c-1.7,6.5-2.6,13.2-5.9,19.1c-3.1,5.6-7.6,9.9-13.2,12.9
		c-4.3,2.3-8.8,4.1-13.6,6.3c-1.9,6.1-4,12.7-6.1,19.3c0.1,0,0.2,0.1,0.3,0.1c1.6-2,3.1-4.1,4.8-6c3.8-4.5,8-8.6,13.5-11
		c4.5-1.9,9.2-2.7,14.3-3c-0.2,0.9-0.3,1.5-0.4,2.1c-2.2,7.7-6.3,14.4-11.6,20.3c-3.4,3.8-7.7,6.4-12.3,8.3c-4.6,1.9-9.3,3.5-14,5.1
		c-1.3,0.4-2.1,1-2.8,2.2c-2.8,4.9-5.7,9.7-8.5,14.6c-0.3,0.5-0.5,1-0.9,1.7c1.2-0.1,1.7-0.9,2.2-1.4c3.7-3.2,7.3-6.5,10.9-9.8
		c3.7-3.3,8.1-5.1,12.9-6.1c4.2-0.8,8.5-1,12.9-1c2,0,2.5,0.9,1.4,2.5c-5.7,8.2-11.9,16-20.8,21c-4.9,2.8-10.2,4.3-15.8,5
		c-3.2,0.4-6.5,0.7-9.7,1c-1.4,0.1-2.4,0.6-3.2,1.9c-3.7,5.8-7.9,11.1-12.5,16.2c-0.6,0.7-1.2,1.3-1.6,2.3c0.4-0.2,0.9-0.3,1.2-0.6
		c5.4-3.6,10.6-7.3,16.1-10.8c2.5-1.6,5.3-3,8.2-4c6.3-2.4,12.7-1.6,19,0.1c1.7,0.5,2,1.4,0.9,3c-3,4.3-6.5,8.1-10.6,11.3
		c-11.3,8.8-24.3,11.5-38.3,10.7c-1.7-0.1-3.4-0.3-5.1-0.4c-0.5,0-1.2,0.2-1.6,0.5c-4.9,4.2-9.8,8.5-14.6,12.7
		c-0.1,0.1-0.2,0.4-0.5,1c1-0.4,1.7-0.6,2.3-0.9c5.4-2.4,10.9-4.3,16.7-5.3c8.6-1.4,16.8-0.3,24.6,3.8c1.7,0.9,1.9,1.8,0.5,2.8
		c-7.2,5.1-14.5,10.2-23.1,12.6c-5.5,1.5-11.1,1.7-16.8,0.9c-5.5-0.8-10.9-2.2-16.2-4c-1.1-0.4-2-0.6-3.1,0.1
		c-4.3,2.8-8.6,5.6-12.9,8.4c-0.3,0.2-0.5,0.4-0.7,1c0.6-0.1,1.2-0.2,1.8-0.3c8.1-1.7,16.2-1.9,24.2,0.7c4,1.3,7.7,3.2,10.9,5.8
		c0.3,0.3,0.7,0.6,1,0.9c0.2,0.1,0.3,0.4,0.4,0.6c-0.2,0.2-0.3,0.5-0.5,0.6c-7.1,5.2-14.9,7.7-23.8,7c-9.2-0.7-17.6-3.9-26-7.5
		c-0.7-0.3-1.4-0.6-2-0.9c-0.8-0.4-1.5-0.3-2.3,0.1c-5.2,2.9-10.7,5.1-16.3,7c-0.2,0.1-0.5,0.2-0.7,0.7c0.8,0,1.7,0,2.5,0
		c3.4,0.2,6.8,0.3,10.2,0.7c6.7,0.8,11.9,4.3,16.1,9.5c1.2,1.5,2.4,3,3.8,4.7c-2.5,0.7-4.7,1.5-6.9,2c-6.4,1.6-12.9,2-19.4,0.2
		c-5.1-1.5-9.4-4.4-13.3-7.9c-1.8-1.6-3.6-3.4-5.3-5.1c-0.7-0.7-1.4-0.9-2.4-0.6c-7.3,2-14.8,3.3-22.3,4.4c-0.3,0-0.5,0.1-1.2,0.3
		c0.7,0.6,1.2,1,1.7,1.3c6.9,4.2,13.5,8.9,19.9,13.8c0.5,0.4,1,0.8,1.5,1.3c2,2.2,2.1,4.6,0.3,6.6c-1.7,1.9-4.7,2.3-6.9,0.7
		c-3.1-2.2-6-4.6-9.1-6.8c-4.2-2.9-8.3-6-12.7-8.6c-8.1-4.7-16.5-4.9-24.8-0.4c-2.7,1.4-5.3,3-7.8,4.8c-5,3.5-9.8,7.2-14.7,10.9
		c-2.4,1.7-5.4,1.4-7.2-0.7c-1.3-1.5-1.5-3.5-0.4-5.2c0.6-1,1.5-1.9,2.4-2.6c6.5-5,13.1-9.7,20.1-14c0.5-0.3,0.9-0.7,1.7-1.2
		c-3.3-0.5-6.2-0.9-9-1.5c-4.8-1-9.6-2-14.3-3.1c-1.2-0.3-1.9,0-2.8,0.8c-1.6,1.6-3.3,3.2-5,4.8c-9.2,8.8-20.1,10.9-32.2,8
		c-2.4-0.6-4.8-1.4-7.3-2.1c5.5-8.3,12.3-14.2,22.6-14.7c2.7-0.1,5.3-0.2,8-0.3c0.5,0,1.1-0.1,1.7-0.4c-1.9-0.7-3.8-1.4-5.7-2.2
		c-3.7-1.6-7.5-3.3-11.1-5.1c-1.1-0.5-2-0.2-2.9,0.2c-5.1,2-10.2,4.1-15.4,5.8c-6.3,2.1-12.8,3-19.5,2.1c-6.3-0.8-11.8-3.4-17-7.4
		c1.1-0.9,2-1.7,2.9-2.5c6.9-5,14.7-6.9,23.1-6.8c3.7,0,7.4,0.5,11,1.3c0.5,0.1,1.1,0.1,1.8-0.1c-0.9-0.6-1.8-1.2-2.7-1.8
		c-3.5-2.3-7.1-4.5-10.6-7c-1.2-0.8-2.2-0.9-3.5-0.5c-5.8,1.9-11.7,3.4-17.7,4.2c-8.6,1-16.8-0.5-24.3-4.7c-4.5-2.5-8.7-5.4-13-8.1
		c-0.2-0.1-0.4-0.3-0.5-0.4c-2-1.6-2-2.2,0.3-3.4c8.4-4.4,17.2-5.2,26.4-3.3c4.8,1,9.4,2.6,13.9,4.6c0.8,0.3,1.6,0.6,2.6,0.6
		c-0.3-0.3-0.5-0.6-0.8-0.9c-4.5-3.9-8.9-7.8-13.4-11.8c-0.8-0.8-1.6-1-2.8-0.9c-8.6,1-17,0.7-25.4-1.6
		c-11.6-3.2-20.6-9.9-27.7-19.5c-0.2-0.2-0.4-0.5-0.5-0.7c-0.9-1.5-0.6-2.4,1.1-2.9c8.1-2.3,16-2.4,23.5,1.9c3.6,2,7.1,4.3,10.6,6.6
		c2.9,1.9,5.8,3.9,8.6,5.9c0.4,0.3,0.9,0.5,1.6,0.5c-0.3-0.4-0.5-0.9-0.9-1.3c-4.9-5.4-9.4-11.1-13.3-17.2c-0.7-1.1-1.6-1.3-2.8-1.4
		c-4.1-0.4-8.1-0.8-12.2-1.3c-8.9-1.3-16.4-5.4-22.8-11.6c-4.2-4.1-7.8-8.7-11.2-13.5c-0.2-0.3-0.4-0.6-0.6-0.9
		c-0.5-1.2-0.2-1.9,1.1-1.9c1.9-0.1,3.7-0.1,5.6,0.1c3.2,0.3,6.5,0.7,9.7,1.3c3.7,0.7,7.1,2.2,9.9,4.8c4.2,3.7,8.3,7.4,12.5,11.1
		c0.4,0.4,0.9,0.7,1.6,0.9c-0.2-0.4-0.3-0.9-0.5-1.3c-3-5.2-6.1-10.3-9.1-15.6c-0.5-0.9-1.1-1.2-2-1.5c-4.5-1.5-9-3.1-13.4-4.7
		c-9.9-3.7-16.6-11-21.3-20.2C8,255,7,251.7,5.7,248.4c-0.1-0.3-0.1-0.7-0.2-1.3c3.1-0.1,6,0.5,8.9,1.1c6.9,1.5,12.5,5.4,17.1,10.6
		c1.9,2.2,3.7,4.5,5.5,6.7c0.3,0.3,0.5,0.7,1.1,0.9c0-0.4,0-0.9-0.2-1.3c-1.7-5.5-3.5-11-5.1-16.6c-0.3-1.1-1-1.5-1.9-1.9
		c-4.5-1.5-8.7-3.3-12.8-5.7C9.9,236,4.6,228.7,2.3,219.2c-0.8-3.2-1.5-6.5-2.3-10c0.9,0.1,1.8,0.1,2.6,0.2
		c7.3,1.3,13.3,4.9,17.9,10.8c4.1,5.2,6.8,11.1,8.8,17.4c0.4,1.1,0.4,1.1,1.4,2.1c0-0.6,0.1-1,0-1.3c-1.7-8.1-2.9-16.2-3.1-24.5
		c0-1.1-0.4-1.7-1.3-2.4c-4.1-3-8.1-6.2-11.6-10c-4.5-4.8-7-10.5-7.4-17c-0.3-4.4,0-8.8,0-13.1c0-0.3,0.1-0.5,0.3-1.1
		c1.3,0.6,2.3,1.2,3.4,1.8c8.8,4.2,13.4,11.4,14.9,20.8c0.3,1.8,0.6,3.5,0.9,5.3c0.1,0.3,0.2,0.6,0.7,0.8c0.1-0.4,0.2-0.8,0.2-1.2
		c0.2-7,0.9-13.9,2.1-20.8c0.2-1.1-0.1-1.8-0.8-2.6c-2.1-2.4-4.2-4.8-6.3-7.2c-1.3-1.6-2.6-3.3-3.9-4.9c-3.4-4.4-4.2-9.6-4.4-14.9
		c-0.3-6.7,1-13.1,3-19.5c0-0.1,0.2-0.2,0.4-0.4c2.5,1.2,4.7,3,6.7,5c3.3,3.3,5.7,7.2,7.1,11.7c0.3,1,0.5,2.2,0.5,3.3
		c0.1,4.2,0,8.5,0,12.7c0,0.7,0,1.4,0,2.1c0.2,0,0.4,0.1,0.6,0.1c0.2-0.6,0.5-1.3,0.7-1.9c1.7-6.9,3.5-13.7,6.5-20.1
		c0.4-0.9,0.2-1.5-0.2-2.3c-1.8-3-3.6-6-5.2-9.1c-2.2-4.2-4.1-8.6-5-13.3c-1-5.2-0.5-10.4,0.4-15.5c1.2-6.5,3.6-12.5,7-18.4
		c0.4,0.4,0.8,0.7,1.1,1c3.2,3.7,6,7.7,7.9,12.3c1.4,3.4,2.1,7,1.9,10.7c-0.5,6.3-0.9,12.6-2.6,18.7c-0.1,0.5-0.2,1,0,1.6
		c0.3-0.4,0.5-0.8,0.8-1.2c3.6-7.2,7.6-14.3,12.1-21c0.7-1,0.8-1.9,0.4-3.1c-1.4-3.5-2.6-6.9-3.8-10.4c-2.1-6-2.1-12,0.1-18.1
		c2.3-6.3,5.5-12,9.9-17c0.3-0.4,0.6-0.8,1.1-1.4c2.4,2.6,3.8,5.5,4.7,8.5c1.6,5.5,1.3,11,0.2,16.5c-0.5,2.2-1.1,4.5-1.7,6.7
		c-0.1,0.6-0.3,1.1,0,1.9c0.4-0.4,0.8-0.7,1.1-1.1C75,79.8,80.3,73.6,86.2,68c0.8-0.7,0.8-1.5,0.8-2.4c-0.1-3.7,0-7.4,0.7-11.1
		c1.5-7.2,5.4-13,10.8-17.7c2.6-2.2,5.3-4.2,8.2-6.4c3.4,11.1-1.1,19.9-7.3,28.7c0.9-0.3,1.4-0.4,1.8-0.7c1.3-0.8,2.6-1.6,3.7-2.6
		c0.9-0.7,1.7-1.6,2.3-2.5c2.1-3.4,4.4-6.6,7.6-9c2.9-2.2,6.2-3.6,9.8-4c1.6-0.2,3.1-0.6,4.7-0.8c1.7-0.2,3.4-0.6,5-0.2
		c0.7,1.2,0,1.9-0.5,2.6c-2.2,3.3-5,6.1-8,8.8c-3.4,2.9-7.5,4-11.5,5.2c-1.3,0.4-2.7,0.2-4.1,0.2c-2.7,0.1-3.7,0.4-6,2.2
		c-1,0.8-2,1.5-2.9,2.2c-0.4,0.3-0.6,0.6-0.9,1.1c10.9-5,21-2,31.4,2.7c-1.3,1.3-2.2,2.4-3.4,3.3c-4.5,3.7-9.7,5.6-15.6,5.8
		c-6,0.3-11.8-0.8-17.4-3.1c-1.3-0.6-2.2-0.5-3.3,0.7C86.9,77.2,81.4,83.4,76,89.7c-0.4,0.4-0.7,0.9-1.1,1.4
		c0.4,0.6,0.9,0.8,1.5,0.4c0.3-0.2,0.6-0.4,0.9-0.7c4.7-3.6,10-5.4,15.9-5.5c7-0.1,13.4,1.9,20,4.6c-2.1,2.6-4.4,4.6-7.1,6.1
		c-6,3.5-12.5,4.4-19.3,4.1c-4.6-0.2-9.1-1-13.6-2.2c-3-0.8-3.1-0.3-4.4,1.6c-4.4,6.2-8.3,12.6-11.7,19.4c-0.3,0.5-0.5,1.1-0.7,1.6
		c0,0.1,0.1,0.3,0.1,0.6c0.7-0.3,1.3-0.7,1.9-1c5.4-3,10.6-6.2,16.4-8.5c5.4-2.1,10.9-3,16.6-1.5c0.8,0.2,1.7,0.6,2.8,0.9
		c-1.1,1.6-2,3.1-3.1,4.3c-7.8,9.3-17.7,14-29.8,13.8c-2.4,0-4.8-0.6-7.3-1.1c-1.2-0.2-1.8,0.1-2.3,1.2c-3.4,7.7-6.5,15.5-9,23.5
		c-0.1,0.2-0.1,0.4-0.1,0.9c1.1-0.4,1.7-1.2,2.5-1.8c3.3-2.7,6.5-5.5,9.8-8c5-3.8,10.5-6.7,16.7-8c3.2-0.6,6.3-0.8,9.8-0.2
		c-0.4,1-0.7,1.9-1.1,2.8c-3.8,8-10,13.6-18.1,17c-5.6,2.4-11.5,3.4-17.6,2.9c-1-0.1-2.1-0.1-3.1-0.2c-0.1,0-0.1,0.1-0.4,0.2
		c-2.3,7.9-4.1,16.1-5.1,25c0.8-0.6,1.2-0.9,1.5-1.2c3.6-3.4,7-7,10.8-10.3c4.3-3.8,8.9-7.2,14.5-8.9c3.2-1,6.5-1.4,10.1-0.5
		c-2.9,7.9-7.6,14.4-14.5,19.2c-6.8,4.8-14.5,6.9-23,6.5c-1.3,9.7-1.2,19.2-0.9,28.8c1.4,0.2,1.7-0.7,2.1-1.5c1.7-3,3.3-6.2,5.2-9.1
		c3.5-5.4,7.8-10.1,13.1-13.8c3.1-2.2,6.5-3.9,10.3-4.7c1-0.2,2-0.2,3.1-0.3c-1.1,12.8-11,30.5-33,33.2c0.9,9.7,2.6,19.3,5,28.7
		c1.5,0.2,1.4-0.8,1.7-1.5c0.9-2.7,1.7-5.5,2.8-8.2c2.6-6.4,6.1-12.2,11.2-17c3-2.8,6.3-4.9,10.3-5.9c0.2-0.1,0.4,0,0.9-0.1
		c0.2,8.3-1.7,15.9-6.1,22.9s-10.5,11.8-18.6,13.7c0.2,4.5,9.8,27.9,12.6,30.3c0.1-1.3,0.2-2.3,0.2-3.4c0.1-5.5,0.1-11,1.1-16.4
		c1.3-6.9,3.9-13.1,9.4-17.7c1-0.8,2.1-1.5,3.4-2.5c3.5,8,3.9,15.9,1.6,23.9c-2.4,8.1-7.3,14.3-14.4,19.1c4.4,9,9.8,17.2,15.9,25
		c0.9-0.8,0.6-1.5,0.5-2.3c-1.7-9-2.6-17.9,0.2-26.9c1.2-4,3.3-7.6,6.6-10.6c5.2,6.9,6.8,14.7,6.3,23c-0.6,8.3-3.4,15.6-9.8,21.4
		c4.9,6.9,10.4,12.9,16.7,18.7c0.6-1.3,0.3-2.3,0.1-3.4c-0.8-4-1.7-8-2.2-12c-0.7-5.9-0.1-11.7,2.4-17.2c1.2-2.6,2.4-4.1,4.3-5.4
		c4.6,6.5,7.2,13.8,7.7,21.7c0.4,8-1.4,15.3-6.7,21.8c7.7,7.4,15.8,14,24.8,19.4c0.1-0.1,0.3-0.3,0.4-0.4c-0.3-0.4-0.4-1-0.8-1.3
		c-7.1-6.6-8.5-15-8-24.1c0.2-3.9,0.9-7.8,1.4-11.9c2.2,0.6,3.8,1.7,5.3,2.8c5.7,4.1,8.6,9.9,9.5,16.7c0.7,5.4,0.5,10.8,0.2,16.2
		c-0.1,1.5,0,3-0.3,4.4c-0.4,2,0.3,3.1,2.1,4c5.4,2.7,10.7,5.6,16,8.3c1.7,0.9,3.5,1.6,5.3,2.4c0.7,0.3,1.3,0.5,2.5,0.9
		c-0.4-0.8-0.5-1.3-0.8-1.6c-1.2-1-2.4-2.1-3.6-3c-7-5.1-10.4-12.3-11.2-20.7c-0.3-3.6-0.4-7.3-0.5-10.9c0-0.6,0-1.2,0-1.9
		c2.8,0.4,5.1,1.5,7.4,2.8c5.7,3.3,9,8.4,11,14.6c1.8,5.6,2.4,11.3,3,17.1c0.2,1.5,0.4,3,0.4,4.4c0,1.3,0.5,2,1.8,2.4
		c4.5,1.4,8.9,3,13.3,4.3c3.8,1.1,7.6,1.9,11.4,2.8C189.2,388.5,189.8,388.5,190.5,388.6z"/>
	<path class="st1" d="M37.9,414c0.4,0.2,0.7,0.5,1,0.5c5.3,0.5,10.6,1,15.9,1.5c6,0.5,12,0.9,18,1.5c7.1,0.7,14.2,1.6,21.2,2.5
		c5.7,0.8,11.4,1.7,17.2,2.6c7.9,1.2,15.5,3.2,23.1,5.5c7.7,2.4,15.3,5.2,22.4,9c0.1,0.1,0.3,0.1,0.4,0.2c2,1.9,4.1,1.7,6.6,0.8
		c7.2-2.6,14.8-3.5,22.5-3.9c5.7-0.3,11.4-0.7,17.1-1.1c2-0.1,4.1-0.5,6.1-0.5c1.4,0,2.8,0.4,4.1,0.4c7.2,0,14.4,0.1,21.6,0
		c5.9-0.1,11.7,0.5,17.5,1c8.4,0.6,16.8,1.8,24.9,4.4c0.8,0.3,1.7,0.5,2.5,0.9c1.3,0.7,2.3,0.5,3.5-0.4c3.7-2.8,8-4.5,12.3-6.2
		c4.4-1.7,8.9-3.3,13.4-4.6c5.8-1.6,11.6-3.3,17.5-4.3c10.2-1.8,20.5-3.4,30.8-4.7c8.1-1.1,16.2-1.6,24.4-2.4
		c5.9-0.5,11.8-0.9,17.7-1.4c1.7-0.1,3.5-0.5,5.4-0.8c-0.3-0.7-0.4-1.2-0.6-1.7c-1.7-3.6-3.3-7.1-5-10.6c-1-2-1-3.8-0.1-5.7
		c2.1-4.7,6.2-6.8,10.8-8.2c3.3-1,6.5-1.1,9.8-0.1c4.8,1.4,8.2,5,9.1,9.9c1.3,7,2.7,14,4.1,20.9c0.5,2.6,1.2,5.2,1.7,7.8
		c0.1,0.4-0.1,1-0.3,1.4c-1.9,4.6-5.4,7.7-9.5,10.3c-4.2,2.6-8.9,4.1-13.6,5.4c-6.9,1.9-13.9,2.8-21,3.5c-5.6,0.5-11.2,1.2-16.8,1.7
		c-4.4,0.4-8.9,0.7-13.3,1c-6.1,0.5-12.2,1.2-18.4,1.7c-8.5,0.7-16.9,2.1-25.3,3.7c-4,0.7-8,1.8-11.9,2.7c-0.3,0.1-0.5,0.2-1,0.5
		c0.2,1.3,0.4,2.5,0.7,3.8c0.2,1.2,0.6,2.2-0.3,3.4c-0.3,0.5-0.3,1.3-0.3,1.9c0,3.9,0,7.9,0,11.8c0,3.2-1.8,4.9-4.9,4.9
		c-1,0-2.1-0.1-3.1,0c-4.9,0.7-9.3-0.9-13.5-3c-4.7-2.4-9.2-5.1-13-8.8c-2.5-2.4-4.7-5-6-8.2c-0.5-1.2-1.2-1.5-2.4-1.5
		c-3.6,0-7.3-0.1-10.9,0c-2.6,0.1-5.3,0.6-7.9,0.5c-19.4-1-38.9-0.2-58.3-0.6c-1.8,0-2.8,0.4-3.6,2.1c-2,4.4-5.4,7.8-9.2,10.7
		c-4.7,3.4-9.7,6.4-15.2,8.1c-3.3,1-6.6,1.9-10,1.1c-3.2-0.8-5.2-2.9-5.1-6.2c0.2-5.9,0.1-11.9,0.1-17.8c0-2-0.1-2.2-1.9-2.6
		c-4.7-1.1-9.4-2.3-14.1-3.1c-6.9-1.2-13.8-2.2-20.7-3c-5.7-0.7-11.5-1.1-17.3-1.6c-9.4-0.8-18.8-1.6-28.1-2.5
		c-7-0.7-14-1.5-20.9-2.7c-7.8-1.4-15.3-3.7-21.8-8.3c-3.1-2.2-5.6-4.9-7.2-8.3c-0.4-0.9-0.4-1.7-0.2-2.6c1.3-6.2,2.7-12.5,4-18.7
		c0.6-3.1,1.2-6.3,1.8-9.4c1-5.3,4.3-8.5,9.6-9.8c5.2-1.3,9.8,0,14.3,2.3c2.4,1.2,4.2,3.3,5.4,5.7c1.1,2.1,1.1,4.1,0.1,6.2
		c-1.7,3.6-3.4,7.3-5.1,10.9C38.2,413.2,38.1,413.5,37.9,414z M300.2,480.5c-1-1.2-1.8-2.7-3-3.7c-8.3-7.7-18.2-12.2-29.3-13.9
		c-0.8-0.1-1.5,0-2.4,0c1,2.7,3.9,6.5,6.6,8.7c4.4,3.7,9.4,6.5,14.7,8.7c3.1,1.3,6.4,2,9.7,2C297.9,482.3,299.2,482,300.2,480.5z
		 M177.6,462.7c-1,0.1-1.8,0.1-2.6,0.2c-10.9,1.9-20.6,6.5-28.7,14.2c-0.7,0.7-1.4,1.5-2,2.4c-0.8,1.1-0.6,1.8,0.6,2.2
		c1.2,0.3,2.5,0.6,3.7,0.5c3.5-0.3,6.8-1.2,10-2.8c3.9-2,7.7-4.1,11.1-6.9c3-2.4,5.4-5.2,7.4-8.5
		C177.4,463.6,177.4,463.3,177.6,462.7z M420.8,406.3c2.2-2.1,3.8-4.4,4.5-7.2c0.3-1,0.5-2.1,0.2-3c-0.7-2.8-2.6-4.8-5.5-5.6
		c-4.7-1.3-9.1-0.6-13.3,1.6c-1.9,1-3.5,2.6-4.5,4.5c-1.4,2.8-0.4,5.3,2.6,6.4c1.7,0.6,3.5,0.6,5.3,0.2c2.2-0.5,4.3-1.1,6.4-1.6
		c1.6-0.4,1.7-0.4,2.4,1C419.5,403.8,420.1,404.9,420.8,406.3z M21.9,406.5c0.8-1.7,1.4-2.9,1.9-4.2c0.4-1,0.9-1.2,1.9-0.9
		c1.3,0.4,2.7,0.9,4,1.2c2.7,0.5,5.3,1.3,8.1,0.4c2.4-0.8,3.6-2.7,3-5.1c-0.3-1.1-0.9-2.2-1.6-3.1c-3.9-4.6-12.6-6.2-18-3.6
		c-3.1,1.5-5.2,5.3-3.5,9.1C18.7,402.4,20,404.3,21.9,406.5z M214.9,457.2c-1.7-3-3.2-5.5-5.1-7.8c0.2-0.2,0.4-0.4,0.6-0.5
		c2.5-1.5,3.3-3.4,2.7-6.2c-0.5-2.4-2.1-3.7-4.9-4c-0.4-0.1-0.9-0.1-1.3-0.1c-2.4,0-4.9,0-7.3,0c-0.5,0-1,0.1-1.6,0.2
		c0.1,6.1-0.1,12.2,0.1,18.2c1.6,0,2.9,0,4.4,0c0-2.5,0-4.8,0-7.1c1.7-0.3,2.6,0.4,3.4,1.5c1.3,1.9,2.6,3.8,3.8,5.6
		C211.2,457.2,212.8,457.2,214.9,457.2z M100.7,437.8c1.7-0.1,2.6,0.7,3.2,1.9c0.9,1.6,1.7,3.3,2.6,4.9c0.3,0.5,0.8,1.1,1.4,1.3
		c1.3,0.3,2.6,0.3,4.4,0.4c-1.4-3.2-2.6-5.9-4.3-8.4c0.4-0.1,0.6-0.2,0.9-0.4c2.3-1,3.5-3,3.3-5.5s-1.6-4.1-4.3-4.7
		c-1.6-0.4-3.2-0.5-4.8-0.7c-1.8-0.2-3.6-0.3-5.6-0.5c-0.7,6.2-1.4,12.1-2.1,18.4c1.5,0.2,2.9,0.3,4.4,0.5
		C100.1,442.5,100.4,440.2,100.7,437.8z M370.8,433c-0.1,0-0.3,0.1-0.4,0.1c-0.3-0.4-0.7-0.8-1-1.2c-1.7-2.2-3.5-4.4-5.2-6.6
		c-0.3-0.4-0.9-1-1.3-1c-1.2,0.1-2.5-0.2-3.7,0.7c0.7,5.9,1.4,11.9,2.1,18.1c1.5-0.2,2.8-0.4,4.1-0.5c-0.3-3.3-0.7-6.4-1-9.4
		c0.9,0.5,1.4,1.2,1.9,1.8c1.5,1.9,3,3.9,4.6,5.8c0.4,0.5,1,1.1,1.5,1.1c1.2,0.1,2.5,0.1,3.7-0.7c-0.7-6-1.4-11.9-2.1-18.1
		c-1.5,0.2-2.7,0.3-4.1,0.5C370.1,426.8,370.4,429.9,370.8,433z M117.9,447.1c0.4-3.3,0.8-6.4,1.3-10c0.6,1.1,0.9,1.6,1.1,2.2
		c1.2,2.4,2.3,4.8,3.4,7.2c0.2,0.5,0.6,1.2,1,1.3c1.2,0.3,2.4,0.3,3.8,0.4c0.7-6.3,1.5-12.2,2-18.4c-1.5-0.1-2.7-0.2-4.1-0.3
		c-0.4,3.3-0.8,6.4-1.2,9.5c-0.6-0.4-0.9-0.9-1.1-1.3c-1.2-2.6-2.4-5.1-3.6-7.7c-0.5-1.1-1.2-1.6-2.4-1.6c-0.8,0-1.6,0-2.5,0
		c-0.6,6.2-1.6,12.1-1.9,18.2C115.4,446.8,116.6,446.9,117.9,447.1z M237.8,444.6c-0.1-2.8-1.1-4.7-3.4-5.6c-2.5-1-5.1-1-7.6,0
		c-2,0.8-3,2.3-3.2,4.4c-0.1,2.1,0.8,3.8,2.6,4.8c1.2,0.6,2.6,1,4,1.4c0.8,0.3,1.6,0.3,2.3,0.7c0.5,0.2,1.1,0.8,1.1,1.2
		c0,0.6-0.5,1.3-0.9,1.6c-1.7,1.1-4.1,0.3-5-1.6c-0.2-0.4-0.4-0.9-0.6-1.4c-0.7,0.1-1.3,0.1-1.9,0.2c-0.6,0.1-1.3,0.2-1.9,0.3
		c-0.2,3.1,1.3,5.4,4,6.3c2.3,0.8,4.7,0.8,7,0c3.2-1,4.8-4.3,3.7-7.5c-0.6-1.9-2-2.9-3.7-3.5c-1.7-0.5-3.4-1-5.1-1.6
		c-0.4-0.1-1-0.8-1-1c0.2-0.5,0.6-1,1.1-1.2c1.9-0.7,3-0.1,4.3,2.2C235,444.6,236.3,444.6,237.8,444.6z M316.8,441.5
		c0.3,3.3,2.1,5.6,4.9,6c2.3,0.3,4.6,0.2,6.8-0.8c2.2-1,3.5-3.2,3.4-5.5c-0.1-2.6-1.6-4.4-4.1-5.2c-0.8-0.2-1.6-0.3-2.4-0.5
		c-1.1-0.2-2.2-0.3-3.3-0.6c-0.5-0.1-0.9-0.6-1.3-1c0.4-0.5,0.8-1.1,1.3-1.3c1.8-0.8,2.9-0.2,4.4,1.9c1.3-0.2,2.6-0.5,4-0.7
		c-0.3-2.7-1.6-4.4-4-5.1c-2.7-0.7-5.3-0.4-7.7,1c-1.8,1-2.5,2.6-2.4,4.7c0.1,1.9,1,3.4,2.8,4.2c1,0.5,2.1,0.7,3.2,0.9
		c1.2,0.3,2.5,0.3,3.7,0.6c0.5,0.1,1.2,0.7,1.2,1.1c0,0.5-0.3,1.3-0.8,1.7c-1.4,1.2-4,0.8-5.1-0.8c-0.3-0.4-0.5-0.9-0.8-1.4
		C319.3,441,318.1,441.2,316.8,441.5z M74.5,430.5c-3.1-0.4-6-0.8-8.8-1.1c0.1-1.1,0.3-1.9,0.4-2.9c2.5,0.2,4.8,0.4,7.1,0.7
		c2.4,0.3,2.4,0.3,2.5-2c0-0.5-0.1-1-0.1-1.6c-4.6-0.5-9-1.2-13.6-1.4c-0.7,6.2-1.6,12.2-2,18.4c4.9,0.4,9.4,1.2,14.2,1.4
		c0-1.4,0-2.5,0-3.7c-3.2-0.4-6.2-0.8-9.4-1.1c0.1-1.3,0.2-2.5,0.3-3.8c3,0.3,5.8,0.6,8.8,0.9C74.2,432.9,74.3,431.9,74.5,430.5z
		 M383.5,436.5c-0.1-1.4-0.2-2.5-0.4-3.8c3-0.4,5.7-0.7,8.7-1.1c-0.2-1.4-0.3-2.5-0.5-3.8c-3,0.3-5.8,0.6-8.7,0.9
		c-0.1-1.1-0.2-2-0.3-2.9c3.2-0.4,6.2-0.8,9.4-1.2c-0.2-1.4-0.4-2.5-0.6-3.8c-4.7,0.5-9.2,1.1-13.8,1.6c0.7,6.3,1.4,12.3,2.1,18.4
		c4.9-0.5,9.5-1,14.2-1.7c-0.2-1.3-0.3-2.4-0.4-3.7C390,435.9,386.8,436.2,383.5,436.5z M241.2,438.8c0,6.2,0,12.2,0,18.3
		c4.8,0,9.4,0,14,0c0-1.3,0-2.4,0-3.7c-3.3-0.2-6.5,0.1-9.5-0.2c0-1.4,0-2.6,0-3.9c3,0,5.7,0,8.6,0c0-1.3,0-2.4,0-3.7
		c-3,0-5.8,0-8.6,0c0-1.2,0-2,0-3.1c3.2,0,6.1,0,9.3,0c-0.1-1.4-0.1-2.5-0.2-3.7C250.2,438.8,245.8,438.8,241.2,438.8z M333.1,427.7
		c0.7,6.2,1.4,12.2,2.1,18.4c1.5-0.2,2.9-0.4,4.4-0.5c-0.3-2.7-0.5-5.1-0.8-7.6c1.1-0.1,2-0.3,3-0.4s2-0.2,3-0.3
		c0.3,2.6,0.6,4.9,0.9,7.6c1.5-0.2,2.9-0.4,4.4-0.6c-0.7-6.2-1.3-12.2-2.2-18.3c-1.6,0.2-2.9,0.3-4.3,0.5c0.2,2.4,0.4,4.6,0.7,6.9
		c-2.1,0.2-4,0.4-5.9,0.6c-0.3-2.4-0.7-4.6-1-6.9C335.9,427.3,334.7,427.4,333.1,427.7z M87.9,439.7c0.4,1.5,0.8,2.8,1.2,4.2
		c1.5,0,2.9,0.7,4.5,0.2c-0.1-0.7-0.2-1.3-0.4-1.8c-1.2-4.4-2.4-8.9-3.7-13.3c-1.3-4.7-0.2-3.7-5-4.2c-0.1,0-0.3,0.1-0.6,0.2
		c-2.9,5.6-5.9,11.3-9.1,17.3c1.8,0.2,3.2,0.4,4.7,0.6c0.7-1.3,1.3-2.5,2-3.8C83.7,439.2,85.7,439.4,87.9,439.7z M44.3,438.8
		c4.6,0.3,8.8,1.2,13.3,1.3c0.1-1.3,0.2-2.4,0.3-3.6c-3-0.4-5.7-0.7-8.7-1.1c0.5-4.8,1-9.5,1.5-14.4c-1.5-0.2-2.8-0.4-4.4-0.6
		C45.7,426.5,45.1,432.5,44.3,438.8z M357.9,443.4c-0.7-6.3-1.4-12.2-2.1-18.4c-1.6,0.2-2.9,0.3-4.4,0.5c0.7,6.2,1.4,12.2,2.1,18.4
		C355,443.7,356.3,443.6,357.9,443.4z M216.2,438.8c0,6.2,0,12.2,0,18.3c1.6,0,2.9,0,4.3,0c0-6.2,0-12.2,0-18.3
		C219.1,438.8,217.8,438.8,216.2,438.8z"/>
	<path class="st1" d="M235.1,306.9c0,6.3,0,12.5,0,19.2c0.6-0.6,1-0.8,1.3-1.2c2.2-2.7,5-4.5,7.9-6.3c7.4-4.6,15.3-8,23.4-11
		c4.3-1.5,8.6-3,12.9-4.6c0.3-0.1,0.7-0.3,1-0.4c1.5-0.4,2.1-1.3,2-2.9c-0.1-5,0-10.1,0-15.1c0-13.7,0-27.3,0-41c0-2,0.5-3.4,1.7-5
		c7.2-8.9,14.3-18,21.5-27c0.6-0.8,1-1.8,2.2-2c0.5,1.6,0.7,105.4,0.2,108.7c-1.5,0.3-3.1,0.5-4.7,0.6c-2.6,0.1-5.2,0.5-7.8,1
		c-7.2,1.2-14.3,3-21.1,5.6c-11.7,4.5-22.1,10.8-30.6,20.1c-4.9,5.5-8.7,11.6-10.9,18.7c-0.1,0.4-0.3,0.8-0.4,1.3
		c-0.1,0.2-0.2,0.4-0.4,0.6c-6.2,0-12.3,0-18.6,0c-0.4-1.5-0.8-3.1-1.3-4.6c-2.5-7.7-6.8-14.3-12.4-20.1c-8-8.1-17.5-13.9-28.1-18
		c-6-2.4-12.2-4.1-18.5-5.3c-3.8-0.7-7.6-1.1-11.4-1.7c-0.3,0-0.6-0.1-0.9-0.2c0-35.5,0-70.9,0-106.8c0.7,0.7,1.2,1,1.6,1.5
		c6.3,7.6,12.7,15.3,19,23c0.1,0.1,0.2,0.2,0.3,0.4c1.2,1.5,2.9,2.8,3.5,4.5s0.2,3.8,0.2,5.7c0,17.6,0,35.2,0,52.8
		c0,1.6,0,3.1,0,4.7c4.2,0.6,8.4,1.4,12.4,3c7.4,3,14.3,6.8,20.9,11.3c3.8,2.6,7.6,5.1,11.4,7.6c0.4,0.2,0.6,0.6,1,0.9
		c1,0.8,2,1.7,3.2,2.6c0-7.1,0-13.9,0-20.5c-2.3-1.3-4.6-2.4-6.6-3.8c-4.4-3.1-7.2-7.3-8.2-12.7c-0.9-5.2,0.9-9.4,3.8-13.3
		c3.7-4.8,8.8-7.4,14.6-8.7c1.8-0.4,3.6-0.7,5.4-0.9c0.5-0.1,1-0.1,1.6,0c4.1,0.6,8.2,1.1,12,2.9c4.7,2.3,8.8,5.4,11,10.3
		c1,2.2,1.7,4.6,2.1,7c0.2,1.4-0.4,3-0.8,4.5c-1.6,6.1-5.6,10.1-11,13C237.7,305.8,236.3,306.3,235.1,306.9z"/>
	<path class="st1" d="M190.3,153.5c4.3-2.2,8.2-4.3,12.4-6.4c0.7,1,1.6,2.1,2.3,3.2c1,1.5,2,3,2.8,4.5c0.6,1,1.4,1,2.2,0.8
		c1.6-0.4,3.2-1.4,4.7-1.4s2.6-0.7,4-1c0-3.2,0-6.4,0-9.6c1.6-0.5,11.2-0.6,14.4-0.2c0,3.1,0,6.3,0,9.6c3.4,1.4,6.9,1.7,10.2,2.8
		c1.9-3,3.8-5.8,5.8-8.8c4.2,2.2,8.3,4.3,12.5,6.5c-2,3.1-3.8,6-5.7,8.9c2.5,2.2,4.9,4.4,7.4,6.6c3.3-1.7,6.5-3.3,9.9-5.1
		c2.5,3.8,4.8,7.4,7.4,11.3c-3.3,1.8-6.5,3.5-9.9,5.3c0.9,2.9,1.7,5.8,2.6,9c3.6,0,7.4,0,11.4,0c0.3,4.4,0.2,8.6,0.1,13
		c-4,0.4-7.8-0.1-11.5,0.3c-0.9,3-1.8,5.8-2.7,8.9c3.2,1.7,6.5,3.4,9.9,5.2c-2.3,3.7-4.8,7.4-7.3,11.4c-3.3-1.7-6.6-3.4-9.9-5.1
		c-2.5,2.2-4.9,4.3-7.4,6.6c1.9,3,3.9,6.1,5.7,9c-4.1,2.1-8.3,4.3-12.6,6.5c-1.5-2.4-3.1-4.8-4.7-7.3c-0.4-0.5-0.7-1.2-1.2-1.5
		c-0.3-0.2-1,0.4-1.5,0.5c-2.7,0.6-5.4,1.1-8.4,1.7c0,3.3,0,6.7,0,10c-2.3,0.6-12.7,0.5-14.6-0.1c0-3.2,0-6.6,0-9.7
		c-3.5-0.9-6.7-1.7-10.1-2.5c-1.9,2.8-3.8,5.8-5.8,8.8c-3.9-2-7.8-3.9-11.6-5.9c-0.3-0.1-0.4-0.6-0.7-1c1.8-2.8,3.6-5.6,5.4-8.5
		c-2.4-2.2-4.7-4.3-7.3-6.7c-2.7,1.4-5.5,2.8-8.3,4.3c-1.6,0.9-1.7,0.9-2.6-0.5c-2.1-3.3-4.2-6.6-6.4-10c3.3-1.8,6.6-3.5,9.9-5.3
		c-0.9-2.9-1.9-5.8-2.9-8.9c-3.7,0-7.4,0-11.2,0c0-4.4,0-8.6,0-13c3.7,0,7.4,0,11.2,0c1-3.1,1.9-6,2.9-9.2c-3.3-1.8-6.6-3.5-9.9-5.3
		c2.2-3.5,4.3-6.7,6.4-9.9c0.6-0.9,1-1.4,2.3-0.7c2.7,1.6,5.6,2.9,8.5,4.4c2.4-2.2,4.8-4.4,7.2-6.6
		C194,159.5,192.2,156.5,190.3,153.5z M262.4,208.3v-0.1c1-1.1,1.4-2.4,1.3-3.9v-0.1c0.3-0.5,0.7-1,0.8-1.5c0.9-5.7,1-11.3-0.9-16.8
		c-0.9-2.7-2.3-5.3-3.5-7.9c-0.1-0.2-0.3-0.3-0.4-0.5l0,0c0.1-1.4-0.4-2.6-1.5-3.5c-1-0.8-2.1-1.6-3.1-2.3c-0.9-0.6-1.8-1.2-2.6-1.8
		l0,0c0-0.1,0-0.2-0.1-0.2c-2.3-1.7-4.4-3.9-6.9-5.1c-4.4-2-8.9-4-13.9-4.1c-3.8-0.1-7.6-0.6-11.3-0.3c-5.8,0.5-11.3,2.4-16.3,5.4
		c-4,2.4-7.7,5.2-10.5,9.1c-1.3,1.8-2.5,3.6-3.8,5.4c-2.1,1.2-2.8,3.3-3.1,5.6c-0.3,2.1-0.5,4.3-1.1,6.3c-0.6,2.2-0.8,4.4-0.7,6.6
		c0.2,2.3,0.7,4.5,2.6,6.1c0.4,0.8,0.8,1.6,1.1,2.4c3.2,8.9,9.1,15.3,17.5,19.6c9.2,4.7,18.9,5.8,29,3.6c7.2-1.6,13.7-4.8,19.1-10
		c3.4-3.2,5.9-7.1,7.9-11.2C262.2,208.9,262.3,208.6,262.4,208.3z"/>
	<path class="st1" d="M112.9,517.8c0-0.7,0-1.4,0-2.1c0-8.3,0-16.6,0-24.9c0-0.5,0-1,0-1.6c0.1-1.3,0.6-1.9,1.9-1.9
		c2.6,0,5.2,0,7.8,0c1.2,0,1.8,0.5,1.8,1.7c0,1.3,0,2.6,0,3.9c0,14.6,0,29.2,0,43.9c0,0.4,0,0.9,0,1.3c0,1.9-0.3,2.2-2.2,2.3
		c-3.2,0-6.4,0-9.7,0c-6.2-10-12.4-20-18.9-30.5c-0.1,1-0.2,1.5-0.2,2.1c0,8.5,0,17.1,0,25.6c0,2.6-0.2,2.8-2.8,2.8
		c-2.2,0-4.3,0-6.5,0c-2,0-2.3-0.3-2.3-2.3c0-5.2,0-10.4,0-15.6c0-10.6,0-21.2,0-31.8c0-0.5,0-1,0-1.6c0.1-1.3,0.5-1.7,1.8-1.8
		c3-0.1,5.9,0,8.9,0c0.9,0,1.3,0.6,1.7,1.2c1.7,2.8,3.4,5.6,5.1,8.3c4,6.5,7.9,12.9,11.9,19.4c0.3,0.6,0.7,1.1,1.1,1.7
		C112.5,517.8,112.7,517.8,112.9,517.8z"/>
	<path class="st1" d="M170.6,540.3c-1.5-4-3-7.7-4.4-11.5c-6.3,0-12.6,0-19.1,0c-1.4,3.8-2.8,7.6-4.3,11.5c-3.7,0-7.3,0-11,0
		c-1.1,0-1.6-0.9-1.3-2c0.1-0.5,0.3-1,0.5-1.5c6.2-15.8,12.3-31.6,18.5-47.5c0.3-0.7,0.6-1.3,0.9-2.1c4.1,0,8.1,0,12.2,0
		c0.5,1.3,1.1,2.5,1.6,3.8c6.1,15.2,12.1,30.4,18.3,45.6c1.1,2.7,0.9,3.7-2.5,3.6C177,540.2,173.9,540.3,170.6,540.3z M162,518.1
		c-1.9-5-3.6-9.8-5.4-14.5c-0.1,0-0.3,0-0.4,0c-1.7,4.8-3.5,9.5-5.3,14.5C154.7,518.1,158.2,518.1,162,518.1z"/>
	<path class="st1" d="M227.1,0c1.2,0,1.9-0.1,2.6,0c9,1,16.6,4.7,22.6,11.5c3.3,3.7,5.8,8.1,6.6,13.1c0.6,3.4,1.4,6.8,1,10.4
		c-0.9,8.3-4.5,15.3-10.6,20.9c-4.3,4-9.3,6.9-15,8.3c-14.2,3.5-26.6,0.2-36.5-10.8c-2.8-3.1-5-6.8-5.8-11.3c0.4,0.4,0.8,0.6,1,0.9
		c6.1,7.6,14.2,11,23.8,10.7c13-0.3,24.6-9,27.8-21.7c1.7-6.5,0.8-12.7-2.3-18.7s-8-10-14.1-12.6c-0.2-0.1-0.4-0.2-0.6-0.3
		C227.6,0.5,227.6,0.4,227.1,0z"/>
	<path class="st1" d="M369.2,523.1c-1.6,10.3-9.6,17.6-19.7,18.1c-3.1,0.2-6.2,0.2-9.3-0.7c-8.9-2.6-14.4-8.6-16.6-17.5
		c-1.6-6.5-1.4-13.1,0.5-19.6c2.9-10,11.2-16.5,21.8-17c5.8-0.3,11.2,0.8,16,4.4c3.5,2.6,5.6,6.2,6.9,10.4c0.4,1.3,0.1,2-1.2,2.4
		c-2.9,0.7-5.8,1.4-8.7,2c-1.4,0.3-1.7,0-2.3-1.7c-0.9-2.7-2.6-4.7-5.2-5.8c-4.9-2-11.6-0.7-14.4,5.6c-1.1,2.6-1.5,5.3-1.6,8
		c-0.2,4.1,0,8.2,1.5,12c2.1,5.3,7.5,7.9,12.9,6.3c2.3-0.7,4.2-2,5.3-4.1c0.8-1.5,1.3-3.1,2-4.7c0.5-1.2,1.1-1.7,2.2-1.3
		C362.5,520.9,365.9,522,369.2,523.1z"/>
	<path class="st1" d="M209.4,540.3c-4.2,0-8.2,0-12.3,0c-0.2-0.4-0.4-0.8-0.6-1.2c-5.8-16.3-11.6-32.5-17.4-48.8
		c-0.1-0.4-0.3-0.8-0.4-1.3c-0.2-1,0.4-1.8,1.4-1.8c3.7,0,7.4,0,11.2,0c4,11.7,8,23.4,12.2,35.6c2.3-6.3,4.1-12.2,6-18
		s3.9-11.6,5.8-17.5c3.7,0,7.3,0,10.8,0c1.3,0,1.8,0.8,1.5,2.1c-0.1,0.4-0.2,0.7-0.4,1c-5.8,16.1-11.5,32.2-17.3,48.4
		C209.8,539.2,209.6,539.7,209.4,540.3z"/>
	<path class="st1" d="M244.7,497.9c-4.4,0-8.4,0-12.4,0c-2.5,0-2.8-0.3-2.8-2.8c0-1.9,0-3.7,0-5.6c0-1.8,0.5-2.2,2.2-2.3
		c2.2,0,4.3,0,6.5,0c10.2,0,20.5,0,30.7,0c0.5,0,1,0,1.6,0c1.1,0.1,1.7,0.6,1.7,1.7c0,2.4,0.1,4.8,0,7.1c0,1.4-0.6,1.8-2.2,1.8
		c-3.5,0-7,0-10.5,0c-0.7,0-1.5,0-2.5,0c0,1,0,1.8,0,2.5c0,12.1,0,24.2,0,36.3c0,0.5,0,1,0,1.6c-0.1,1.6-0.4,2-2,2
		c-2.8,0-5.6,0-8.5,0c-1.4,0-1.8-0.5-1.9-1.9c0-0.5,0-1,0-1.6c0-12.1,0-24.2,0-36.3C244.7,499.8,244.7,499,244.7,497.9z"/>
	<path class="st1" d="M302.6,497.9c0,1.2,0,2,0,2.8c0,12.1,0,24.2,0,36.3c0,0.6,0,1.2,0,1.8c0,1-0.5,1.6-1.5,1.6c-3,0-6.1,0-9.1,0
		c-1,0-1.5-0.6-1.6-1.5c0-0.6,0-1.2,0-1.8c0-12.2,0-24.3,0-36.5c0-0.8,0-1.6,0-2.6c-1.2,0-2.1,0-3.1,0c-3.3,0-6.5,0-9.8,0
		c-2,0-2.3-0.4-2.3-2.4s0-4,0-6c0-1.8,0.4-2.3,2.2-2.3c12.7,0,25.4,0,38.1,0c1.9,0,2.3,0.4,2.3,2.4s0,4,0,6c0,1.8-0.4,2.2-2.2,2.2
		c-3.5,0-7,0-10.5,0C304.4,497.9,303.6,497.9,302.6,497.9z"/>
	<g>
		<path class="st1" d="M139.3,189.6c5.5-0.1,11.3,0.3,16.9,1.8c1.9,0.5,3.8,1.3,5.5,2.3c1.9,1.3,1.8,2.8-0.2,4
			c-1.6,0.9-3.3,1.7-5.1,2.1c-11.8,2.8-23.7,2.8-35.5-0.1c-1.6-0.4-3.2-1.1-4.6-2c-1.9-1.2-1.9-2.8,0-4.1c1.3-0.8,2.8-1.4,4.2-1.9
			C125.5,190.1,131,189.6,139.3,189.6z"/>
		<path class="st1" d="M133.4,145c4,0.2,7.7,1.4,11.3,2.8c7.3,2.9,14.3,6.5,20.5,11.5c1.9,1.5,3.5,3.4,5.1,5.2
			c0.5,0.5,0.7,1.3,0.9,2c0.3,1.3-0.3,2.3-1.5,2.6s-2.5,0.3-3.7,0.2c-4.5-0.4-8.7-2-12.7-3.8c-6.4-2.8-12.6-6.1-18-10.5
			c-1.3-1.1-2.6-2.3-3.7-3.5c-0.7-0.8-1.4-1.7-1.9-2.7c-0.9-1.8-0.1-3.2,1.9-3.6C132.1,145,132.8,145,133.4,145z"/>
		<path class="st1" d="M284.1,169.4c-0.1,0-0.1,0-0.2,0c-1.3-0.1-2.8-0.1-3.5-1.5s0.1-2.6,0.9-3.7c2.2-3.1,5.3-5.4,8.4-7.5
			c6.9-4.6,14.2-8.4,22.2-10.6c2.1-0.6,4.4-0.8,6.5-1.1c0.6-0.1,1.2,0,1.8,0.2c1.9,0.5,2.6,1.7,1.7,3.5c-0.6,1.2-1.5,2.4-2.4,3.4
			c-2.8,3-6.2,5.3-9.6,7.5c-5.6,3.5-11.5,6.4-17.9,8.3c-2.5,0.8-5.2,1.2-7.8,1.8C284.1,169.6,284.1,169.5,284.1,169.4z"/>
		<path class="st1" d="M288.6,194.6c1.2-1.6,2.9-2.2,4.7-2.8c4.7-1.5,9.5-2.1,14.4-2.2c6.8-0.2,13.6-0.2,20.3,1.4
			c1.9,0.5,3.8,1.1,5.7,1.9c1.1,0.5,2.4,1.2,2.5,2.6c0.1,1.6-1.2,2.4-2.4,2.9c-2.2,0.8-4.5,1.7-6.8,2.1c-10.8,2-21.7,2-32.4-0.6
			c-0.8-0.2-1.6-0.5-2.3-0.7C290.2,198.4,288.6,197.3,288.6,194.6z"/>
		<path class="st1" d="M282.6,113.3c-0.2,3.4-1.5,6.6-2.9,9.8c-3.4,7.2-7.7,13.9-13.3,19.6c-1.7,1.7-3.7,3.2-5.8,4.4
			c-2.8,1.5-4.8,0.2-4.5-3c0.2-2.5,0.8-5,1.7-7.3c3.4-8.5,8.2-16.1,14.7-22.6c1.6-1.6,3.5-3,5.5-4.1
			C280.7,108.3,282.6,109.7,282.6,113.3z"/>
		<path class="st1" d="M169.3,113.7c0-0.5,0-1,0.1-1.5c0.3-1.7,1.6-2.6,3.3-2c1.5,0.6,3,1.3,4.2,2.3c3.8,2.9,6.8,6.6,9.5,10.5
			c3.4,4.9,6.5,10.1,8.3,15.9c0.6,2,1.1,4,1.2,6.1c0.1,2.9-1.9,4.1-4.4,2.8c-1.9-1-3.8-2.3-5.4-3.9c-7.2-7.2-12.6-15.5-15.9-25.1
			c-0.6-1.6-0.8-3.3-1.2-5C169.2,113.7,169.3,113.7,169.3,113.7z"/>
		<path class="st1" d="M232.6,115.8c-0.1,5.5-0.5,11-2.3,16.2c-0.4,1.2-1,2.5-1.7,3.6c-1.7,2.5-3.6,2.5-5.3,0
			c-1-1.5-1.7-3.1-2.2-4.8c-1.9-6.9-2.2-14-1.6-21.2c0.3-4,1-7.9,2.5-11.7c0.4-1,1-2,1.7-2.9c1.4-1.6,3-1.7,4.3,0
			c0.9,1.1,1.6,2.5,2.1,3.9C232.1,104.4,232.5,110.1,232.6,115.8z"/>
	</g>
	<path class="st1" d="M219.4,26.4c-0.2,3.3-0.4,6.6-0.7,10.4c-2.6-2.8-4-6.1-6.3-8.6c-3.4,0.8-6.7,1.7-10.6,2.7c2.5-3,4.7-5.6,7-8.3
		c-1.9-2.8-3.8-5.6-5.7-8.4c0.1-0.1,0.1-0.2,0.2-0.4c3.3,1.1,6.6,2.3,10.1,3.5c2.3-2.6,4.6-5.2,6.8-7.7c0.1,0.1,0.2,0.1,0.4,0.2
		c-0.2,3.3-0.3,6.5-0.5,9.9c3.2,1.2,6.3,2.3,9.4,3.4C226.3,24.8,222.7,24.9,219.4,26.4z"/>
	<ellipse class="st1" cx="225.2" cy="195.6" rx="44" ry="38.2"/>
	<ellipse class="st1" cx="224.8" cy="195.6" rx="39.8" ry="35.8"/>
	<path class="st1" d="M262.1,209.2c0.1-0.3,0.2-0.5,0.3-0.8C262.3,208.6,262.2,208.9,262.1,209.2z"/>
	<path class="st1" d="M260.2,178c-0.1-0.2-0.3-0.3-0.4-0.5C259.9,177.7,260.1,177.8,260.2,178z"/>
	<path class="st1" d="M202.4,446.1c0-1.2,0-2.2,0-3.4c1.6,0,3.1-0.1,4.6,0c0.9,0,1.5,0.6,1.5,1.6c0.1,1.1-0.6,1.7-1.6,1.8
		C205.6,446.2,204.1,446.1,202.4,446.1z"/>
	<path class="st1" d="M101.5,430.5c1.7,0.2,3.1,0.4,4.6,0.6c1,0.2,1.5,0.8,1.4,1.9s-0.8,1.6-1.8,1.6c-1.5-0.1-2.9-0.3-4.6-0.5
		C101.3,432.8,101.4,431.7,101.5,430.5z"/>
	<path class="st1" d="M83.4,435.3c0.8-1.6,1.4-2.9,2-4.1c0.1,0,0.3,0,0.4,0.1c0.3,1.3,0.7,2.6,1.1,4.3
		C85.8,435.5,84.9,435.4,83.4,435.3z"/>
</g>
</svg>
